<svg width="556" height="280" viewBox="0 0 556 280" fill="none" xmlns="http://www.w3.org/2000/svg">
<g clip-path="url(#clip0_4035_14853)">
<rect width="556" height="280" rx="12" fill="#F5F5F5"/>
<g filter="url(#filter0_ddd_4035_14853)">
<g clip-path="url(#clip1_4035_14853)">
<g filter="url(#filter1_i_4035_14853)">
<g clip-path="url(#clip2_4035_14853)">
<mask id="path-6-inside-1_4035_14853" fill="white">
<path d="M0 0.420898H556V44.4941H0V0.420898Z"/>
</mask>
<path d="M0 0.420898H556V44.4941H0V0.420898Z" fill="white"/>
<rect width="556" height="23.7317" transform="translate(0 0.420898)" fill="#DFE1E6"/>
<circle cx="14.691" cy="12.2867" r="3.39024" fill="#F46B5D"/>
<circle cx="14.691" cy="12.2867" r="3.24898" stroke="black" stroke-opacity="0.15" stroke-width="0.28252"/>
<circle cx="25.9918" cy="12.2867" r="3.39024" fill="#F9BD4E"/>
<circle cx="25.9918" cy="12.2867" r="3.24898" stroke="black" stroke-opacity="0.15" stroke-width="0.28252"/>
<circle cx="37.2926" cy="12.2867" r="3.39024" fill="#57C353"/>
<circle cx="37.2926" cy="12.2867" r="3.24898" stroke="black" stroke-opacity="0.15" stroke-width="0.28252"/>
<path d="M193.244 24.1528H48.5933C51.1359 24.1528 53.1136 21.7247 53.1136 19.0831V9.74425C53.1136 7.10269 55.1477 4.94141 57.6339 4.94141H184.203C186.689 4.94141 188.723 5.90197 188.723 8.54354V19.3499C188.723 21.9915 190.757 24.1528 193.244 24.1528Z" fill="white"/>
<path d="M60.5021 17.0269L59.4783 12.0364H60.2919L60.7598 14.6333L61.0242 16.2335H61.0513C61.1598 15.6979 61.2751 15.1622 61.3904 14.6333L62.0345 12.0364H62.7261L63.3771 14.6333C63.4923 15.1554 63.6008 15.6911 63.7161 16.2335H63.75C63.8313 15.6911 63.9195 15.1554 64.0009 14.6333L64.4755 12.0364H65.2281L64.245 17.0269H63.2753L62.6041 14.2536C62.5159 13.8604 62.4413 13.4874 62.3735 13.1077H62.3396C62.2718 13.4874 62.1905 13.8604 62.1091 14.2536L61.4514 17.0269H60.5021ZM66.0455 17.0269V12.0364H67.5576C68.6696 12.0364 69.4629 12.4161 69.4629 13.5417C69.4629 14.6333 68.6696 15.1351 67.5847 15.1351H66.8321V17.0269H66.0455ZM66.8321 14.5045H67.5101C68.3102 14.5045 68.6899 14.1994 68.6899 13.5417C68.6899 12.884 68.2763 12.667 67.483 12.667H66.8321V14.5045ZM71.7867 17.115C71.1019 17.115 70.4645 16.8438 70.0102 16.3827L70.4713 15.8403C70.8307 16.1996 71.3189 16.4302 71.8003 16.4302C72.4037 16.4302 72.7428 16.1454 72.7428 15.725C72.7428 15.2707 72.4037 15.1283 71.9427 14.9249L71.2511 14.6266C70.7696 14.4231 70.234 14.0434 70.234 13.3179C70.234 12.5314 70.9256 11.9415 71.8749 11.9415C72.458 11.9415 73.0072 12.1856 73.3869 12.5721L72.9733 13.0738C72.6614 12.7958 72.3156 12.6263 71.8749 12.6263C71.3663 12.6263 71.0341 12.8704 71.0341 13.2705C71.0341 13.6976 71.4341 13.8604 71.841 14.0231L72.5258 14.3147C73.1157 14.5655 73.5429 14.9317 73.5429 15.664C73.5429 16.4641 72.8784 17.115 71.7867 17.115ZM76.011 17.0269V12.0364H77.5231C78.6351 12.0364 79.4284 12.4161 79.4284 13.5417C79.4284 14.6333 78.6351 15.1351 77.5502 15.1351H76.7975V17.0269H76.011ZM76.7975 14.5045H77.4756C78.2757 14.5045 78.6554 14.1994 78.6554 13.5417C78.6554 12.884 78.2418 12.667 77.4485 12.667H76.7975V14.5045ZM80.4011 17.0269V12.0364H81.6962C83.2286 12.0364 84.1032 12.884 84.1032 14.5113C84.1032 16.1318 83.2286 17.0269 81.7369 17.0269H80.4011ZM81.1876 16.3827H81.6419C82.7132 16.3827 83.2896 15.7521 83.2896 14.5113C83.2896 13.2637 82.7132 12.6738 81.6419 12.6738H81.1876V16.3827ZM85.1421 17.0269V12.0364H88.0984V12.6941H85.9287V14.2197H87.773V14.8774H85.9287V17.0269H85.1421Z" fill="#3D4043"/>
<path d="M176.971 16.6959C177.02 16.7444 177.078 16.7763 177.146 16.7918C177.215 16.8093 177.283 16.8093 177.349 16.7918C177.417 16.7763 177.474 16.7453 177.52 16.6988L179.118 15.1001L180.713 16.6988C180.787 16.7725 180.878 16.8083 180.986 16.8064C181.096 16.8064 181.189 16.7686 181.265 16.693C181.34 16.6174 181.378 16.5254 181.378 16.4169C181.378 16.3083 181.341 16.2173 181.268 16.1436L179.673 14.5448L181.268 12.949C181.341 12.8773 181.378 12.7862 181.378 12.6757C181.378 12.5653 181.34 12.4732 181.265 12.3996C181.189 12.324 181.096 12.2862 180.986 12.2862C180.878 12.2843 180.787 12.3201 180.713 12.3938L179.118 13.9925L177.52 12.3938C177.474 12.3473 177.417 12.3162 177.349 12.3007C177.283 12.2833 177.215 12.2823 177.146 12.2978C177.078 12.3133 177.02 12.3463 176.971 12.3967C176.921 12.449 176.887 12.5091 176.87 12.5769C176.854 12.6428 176.854 12.7096 176.87 12.7775C176.887 12.8453 176.919 12.9025 176.965 12.949L178.563 14.5448L176.965 16.1436C176.919 16.1921 176.887 16.2502 176.87 16.318C176.854 16.3839 176.854 16.4508 176.87 16.5186C176.887 16.5864 176.921 16.6455 176.971 16.6959Z" fill="#3D4043"/>
<path d="M197.764 14.5475C197.764 14.7043 197.82 14.8387 197.932 14.9508C198.044 15.06 198.177 15.1146 198.331 15.1146H200.591V17.3748C200.591 17.5288 200.646 17.6604 200.755 17.7697C200.867 17.8817 201 17.9377 201.154 17.9377C201.311 17.9377 201.444 17.8817 201.554 17.7697C201.666 17.6604 201.722 17.5288 201.722 17.3748V15.1146H203.982C204.136 15.1146 204.267 15.06 204.377 14.9508C204.489 14.8387 204.545 14.7043 204.545 14.5475C204.545 14.3934 204.489 14.2604 204.377 14.1484C204.267 14.0363 204.136 13.9803 203.982 13.9803H201.722V11.7244C201.722 11.5703 201.666 11.4373 201.554 11.3253C201.444 11.2132 201.311 11.1572 201.154 11.1572C201 11.1572 200.867 11.2132 200.755 11.3253C200.646 11.4373 200.591 11.5703 200.591 11.7244V13.9803H198.331C198.177 13.9803 198.044 14.0363 197.932 14.1484C197.82 14.2604 197.764 14.3934 197.764 14.5475Z" fill="#3D4043"/>
<rect width="556" height="20.3415" transform="translate(0 24.1528)" fill="white"/>
<path d="M16.0764 34.2022C16.3364 34.2022 16.5472 34.413 16.5472 34.6731L-nan -nanL16.5472 34.6731C16.5472 34.9331 16.3364 35.1439 16.0764 35.1439H10.8968L13.1523 37.3994C13.3369 37.584 13.3369 37.8834 13.1523 38.068L-nan -nanL13.1523 38.068C12.9677 38.2527 12.6683 38.2527 12.4837 38.068L9.48825 35.0726C9.26759 34.852 9.26759 34.4942 9.48825 34.2735L12.4837 31.2781C12.6683 31.0935 12.9677 31.0935 13.1523 31.2781L-nan -nanL13.1523 31.2781C13.3369 31.4628 13.3369 31.7621 13.1523 31.9468L10.8968 34.2022H16.0764Z" fill="#606368"/>
<path d="M27.5652 34.2022C27.3052 34.2022 27.0944 34.413 27.0944 34.6731L-nan -nanL27.0944 34.6731C27.0944 34.9331 27.3052 35.1439 27.5652 35.1439H32.7448L30.4893 37.3994C30.3047 37.584 30.3047 37.8834 30.4893 38.068L-nan -nanL30.4893 38.068C30.6739 38.2527 30.9733 38.2527 31.1579 38.068L34.1534 35.0726C34.374 34.852 34.374 34.4942 34.1534 34.2735L31.1579 31.2781C30.9733 31.0935 30.6739 31.0935 30.4893 31.2781L-nan -nanL30.4893 31.2781C30.3047 31.4628 30.3047 31.7621 30.4893 31.9468L32.7448 34.2022H27.5652Z" fill="#BABCBE"/>
<path d="M51.254 31.6632C50.5712 30.9804 49.6342 30.5566 48.5936 30.5566C47.5945 30.5566 46.6364 30.9535 45.93 31.66C45.2235 32.3664 44.8267 33.3245 44.8267 34.3236C44.8267 35.3226 45.2235 36.2808 45.93 36.9872C46.6364 37.6936 47.5945 38.0905 48.5936 38.0905C50.1271 38.0905 51.438 37.1752 52.0249 35.8616C52.1556 35.5692 51.9213 35.2653 51.601 35.2653L-nan -nanL51.601 35.2653C51.3931 35.2653 51.2115 35.3986 51.1188 35.5847C50.6569 36.5119 49.6996 37.1488 48.5936 37.1488C47.8443 37.1488 47.1257 36.8511 46.5959 36.3213C46.066 35.7915 45.7684 35.0729 45.7684 34.3236C45.7684 33.5743 46.066 32.8557 46.5959 32.3259C47.1257 31.796 47.8443 31.4984 48.5936 31.4984C49.3752 31.4984 50.0721 31.8233 50.5807 32.3365L49.0645 33.8527H52.3605V30.5566L51.254 31.6632Z" fill="#606368"/>
<rect x="61.0244" y="26.4131" width="435.081" height="15.8211" rx="7.91057" fill="#F1F3F4"/>
<path d="M74.0202 33.4762C74.1701 33.4762 74.3138 33.5357 74.4198 33.6417C74.5257 33.7476 74.5853 33.8914 74.5853 34.0412V36.8664C74.5853 37.0163 74.5257 37.16 74.4198 37.266C74.3138 37.3719 74.1701 37.4315 74.0202 37.4315H70.63C70.4801 37.4315 70.3364 37.3719 70.2304 37.266C70.1245 37.16 70.0649 37.0163 70.0649 36.8664V34.0412C70.0649 33.7276 70.3192 33.4762 70.63 33.4762H70.9125V32.9111C70.9125 32.5365 71.0613 32.1772 71.3262 31.9123C71.5912 31.6474 71.9505 31.4985 72.3251 31.4985C72.5106 31.4985 72.6943 31.5351 72.8657 31.6061C73.0371 31.6771 73.1928 31.7811 73.324 31.9123C73.4551 32.0434 73.5592 32.1992 73.6302 32.3706C73.7012 32.5419 73.7377 32.7256 73.7377 32.9111V33.4762H74.0202ZM72.3251 32.0636C72.1003 32.0636 71.8847 32.1529 71.7258 32.3118C71.5668 32.4708 71.4775 32.6863 71.4775 32.9111V33.4762H73.1727V32.9111C73.1727 32.6863 73.0834 32.4708 72.9244 32.3118C72.7655 32.1529 72.5499 32.0636 72.3251 32.0636Z" fill="#606368"/>
<rect x="81.3657" y="30.0859" width="71.1951" height="8.47561" rx="4.2378" fill="#FDFDFD"/>
<g clip-path="url(#clip3_4035_14853)">
<path d="M467.026 38.18H470.939C471.312 38.18 471.594 38.0843 471.785 37.893C471.977 37.7017 472.072 37.4232 472.072 37.0573V33.7361C472.072 33.3678 471.977 33.0893 471.785 32.9004C471.594 32.7091 471.312 32.6134 470.939 32.6134H470.032V33.3308H470.885C471.036 33.3308 471.152 33.3702 471.233 33.4491C471.314 33.5256 471.355 33.644 471.355 33.8042V36.9856C471.355 37.1434 471.314 37.2618 471.233 37.3407C471.152 37.4196 471.036 37.459 470.885 37.459H467.08C466.929 37.459 466.813 37.4196 466.732 37.3407C466.653 37.2618 466.614 37.1434 466.614 36.9856V33.8042C466.614 33.644 466.653 33.5256 466.732 33.4491C466.813 33.3702 466.929 33.3308 467.08 33.3308H467.944V32.6134H467.026C466.655 32.6134 466.373 32.7079 466.18 32.8968C465.988 33.0857 465.893 33.3654 465.893 33.7361V37.0573C465.893 37.4232 465.988 37.7017 466.18 37.893C466.373 38.0843 466.655 38.18 467.026 38.18ZM468.984 35.4541C469.075 35.4541 469.153 35.4218 469.217 35.3572C469.284 35.2903 469.318 35.2138 469.318 35.1277V31.7347L469.289 31.2326L469.49 31.4872L469.949 31.975C470.009 32.0396 470.083 32.0718 470.171 32.0718C470.253 32.0718 470.322 32.0455 470.38 31.9929C470.437 31.9379 470.466 31.8698 470.466 31.7885C470.466 31.7096 470.436 31.639 470.376 31.5769L469.239 30.4829C469.196 30.4399 469.153 30.41 469.11 30.3933C469.069 30.3765 469.027 30.3682 468.984 30.3682C468.939 30.3682 468.895 30.3765 468.852 30.3933C468.811 30.41 468.769 30.4399 468.726 30.4829L467.593 31.5769C467.53 31.639 467.499 31.7096 467.499 31.7885C467.499 31.8698 467.528 31.9379 467.585 31.9929C467.643 32.0455 467.711 32.0718 467.79 32.0718C467.881 32.0718 467.956 32.0396 468.016 31.975L468.475 31.4872L468.676 31.2326L468.647 31.7347V35.1277C468.647 35.2138 468.679 35.2903 468.744 35.3572C468.811 35.4218 468.891 35.4541 468.984 35.4541Z" fill="#606368"/>
</g>
<g clip-path="url(#clip4_4035_14853)">
<path d="M484.805 35.7604L483.212 36.7223L483.593 35.0742C483.617 34.9723 483.582 34.8657 483.503 34.7971L482.224 33.6881L483.911 33.5456C484.015 33.5368 484.106 33.4708 484.147 33.3742L484.805 31.8192L485.463 33.3742C485.504 33.4708 485.595 33.5368 485.7 33.5456L487.386 33.6881L486.108 34.7971C486.028 34.8657 485.994 34.9723 486.017 35.0742L486.399 36.7223M488.537 33.5925C488.726 33.4289 488.625 33.1186 488.376 33.0975L486.166 32.91C486.061 32.9011 485.97 32.8352 485.93 32.7387L485.065 30.6997C484.968 30.47 484.642 30.47 484.545 30.6997L483.681 32.7387C483.64 32.8352 483.549 32.9011 483.445 32.91L481.234 33.0976C480.985 33.1187 480.884 33.4287 481.072 33.5925L482.749 35.0471C482.828 35.1157 482.862 35.2223 482.839 35.3243L482.337 37.4867C482.281 37.73 482.545 37.9215 482.758 37.7924L484.659 36.6452C484.749 36.591 484.861 36.591 484.951 36.6452L486.851 37.7918C487.065 37.9209 487.329 37.7291 487.272 37.4857L486.768 35.3247C486.744 35.2225 486.779 35.1156 486.858 35.0469L488.537 33.5925Z" fill="#606368"/>
</g>
<path fill-rule="evenodd" clip-rule="evenodd" d="M507.265 30.792C507.265 30.2459 507.708 29.8032 508.254 29.8032C508.8 29.8032 509.243 30.2459 509.243 30.792V31.4983H510.514C511.138 31.4983 511.644 32.0043 511.644 32.6284L511.644 33.8998H512.351C512.897 33.8998 513.339 34.3425 513.339 34.8886C513.339 35.4347 512.897 35.8774 512.351 35.8774H511.644L511.644 37.1487C511.644 37.7729 511.138 38.2788 510.514 38.2788H509.243V37.5725C509.243 37.0264 508.8 36.5837 508.254 36.5837C507.708 36.5837 507.265 37.0264 507.265 37.5725V38.2788H505.994C505.37 38.2788 504.864 37.7729 504.864 37.1487V32.6284C504.864 32.0043 505.37 31.4983 505.994 31.4983H507.265V30.792ZM505.57 33.8998C506.116 33.8998 506.559 34.3425 506.559 34.8886C506.559 35.4347 506.116 35.8774 505.57 35.8774H504.864L504.864 33.8998H505.57Z" fill="#606367"/>
<path fill-rule="evenodd" clip-rule="evenodd" d="M527.533 31.8483H523.577V37.4987H527.533V31.8483ZM522.447 30.7183V38.6288H530.358V30.7183H522.447Z" fill="#606368"/>
<path d="M543.919 36.5567C544.169 36.5567 544.408 36.6559 544.585 36.8325C544.761 37.0091 544.861 37.2486 544.861 37.4984C544.861 37.7482 544.761 37.9877 544.585 38.1643C544.408 38.3409 544.169 38.4401 543.919 38.4401C543.669 38.4401 543.429 38.3409 543.253 38.1643C543.076 37.9877 542.977 37.7482 542.977 37.4984C542.977 37.2486 543.076 37.0091 543.253 36.8325C543.429 36.6559 543.669 36.5567 543.919 36.5567ZM543.919 33.7315C544.169 33.7315 544.408 33.8307 544.585 34.0073C544.761 34.1839 544.861 34.4234 544.861 34.6732C544.861 34.923 544.761 35.1625 544.585 35.3391C544.408 35.5157 544.169 35.6149 543.919 35.6149C543.669 35.6149 543.429 35.5157 543.253 35.3391C543.076 35.1625 542.977 34.923 542.977 34.6732C542.977 34.4234 543.076 34.1839 543.253 34.0073C543.429 33.8307 543.669 33.7315 543.919 33.7315ZM543.919 30.9062C544.169 30.9062 544.408 31.0055 544.585 31.1821C544.761 31.3587 544.861 31.5982 544.861 31.848C544.861 32.0977 544.761 32.3373 544.585 32.5139C544.408 32.6905 544.169 32.7897 543.919 32.7897C543.669 32.7897 543.429 32.6905 543.253 32.5139C543.076 32.3373 542.977 32.0977 542.977 31.848C542.977 31.5982 543.076 31.3587 543.253 31.1821C543.429 31.0055 543.669 30.9062 543.919 30.9062Z" fill="#606368"/>
</g>
<path d="M556 43.929H0V45.0591H556V43.929Z" fill="#F1F3F4" mask="url(#path-6-inside-1_4035_14853)"/>
</g>
<g clip-path="url(#clip5_4035_14853)">
<rect width="556" height="235" transform="translate(0 44.4941)" fill="white"/>
</g>
</g>
<rect x="-0.42378" y="-0.00288203" width="556.848" height="329.701" rx="13.9848" stroke="white" stroke-width="0.847561"/>
</g>
<g clip-path="url(#clip6_4035_14853)">
<path d="M52 126C52 124.895 52.8954 124 54 124H414C415.105 124 416 124.895 416 126V262C416 263.105 415.105 264 414 264H54C52.8954 264 52 263.105 52 262V126Z" fill="#EAEFF5"/>
<path fill-rule="evenodd" clip-rule="evenodd" d="M287.79 205.579C294.853 205.579 300.579 199.853 300.579 192.79C300.579 185.726 294.853 180 287.79 180C280.726 180 275 185.726 275 192.79C275 199.853 280.726 205.579 287.79 205.579ZM92 276L168.405 187.48C171.929 183.397 178.197 183.217 181.951 187.09L245.172 252.332L283.076 214.144C286.598 210.595 292.312 210.517 295.93 213.967L350.741 266.237V286.462H231.371V285.806H110.032L92 276Z" fill="#DBE0E7"/>
</g>
<path d="M51 62C51 60.8954 51.8954 60 53 60H414C415.105 60 416 60.8954 416 62V74C416 75.1046 415.105 76 414 76H53C51.8954 76 51 75.1046 51 74V62Z" fill="#EAEFF5"/>
<path d="M51 94C51 92.8954 51.8954 92 53 92H250C251.105 92 252 92.8954 252 94V106C252 107.105 251.105 108 250 108H53C51.8954 108 51 107.105 51 106V94Z" fill="#EAEFF5"/>
<rect x="374" y="222" width="32" height="32" rx="8" fill="#0D0D0D" fill-opacity="0.5"/>
<path d="M390.749 235.525C390.945 235.336 391.256 235.338 391.449 235.531L392.593 236.675C392.786 236.868 392.789 237.18 392.599 237.376L385.551 244.68C385.357 244.881 385.035 244.884 384.837 244.686L383.436 243.285C383.238 243.087 383.241 242.765 383.442 242.571L390.749 235.525Z" stroke="white" stroke-width="1.5"/>
<path d="M388.5 237.5L390.5 239.5" stroke="white" stroke-width="1.5"/>
<path d="M390.25 231V232.75" stroke="white" stroke-width="1.5" stroke-linecap="round"/>
<path d="M395.237 232.763L394 234" stroke="white" stroke-width="1.5" stroke-linecap="round"/>
<path d="M395.237 242.75L394 241.513" stroke="white" stroke-width="1.5" stroke-linecap="round"/>
<path d="M385.25 232.763L386.487 234" stroke="white" stroke-width="1.5" stroke-linecap="round"/>
<path d="M395.25 237.75H397" stroke="white" stroke-width="1.5" stroke-linecap="round"/>
<g filter="url(#filter2_d_4035_14853)">
<rect x="374" y="130" width="158" height="84" rx="8" fill="white"/>
<rect x="373.5" y="129.5" width="159" height="85" rx="8.5" stroke="#0D0D0D" stroke-opacity="0.12"/>
<path d="M391.76 160.243L395.246 156.752M395.246 156.752L391.76 156.752M395.246 156.752L395.246 160.243" stroke="#333333" stroke-width="1.5" stroke-linecap="round" stroke-linejoin="round"/>
<path d="M398 160.25H402.75C403.578 160.25 404.25 159.578 404.25 158.75V149.25C404.25 148.422 403.578 147.75 402.75 147.75H393.25C392.422 147.75 391.75 148.422 391.75 149.25V154" stroke="#333333" stroke-width="1.5"/>
<path d="M395.75 151.25H400.25M398 156.25V151.25" stroke="#333333" stroke-width="1.5" stroke-linecap="round"/>
<path d="M415.98 159.092H414.9L414.72 158.252C415.056 158.276 415.368 158.3 415.68 158.3C415.968 158.3 416.124 158.144 416.124 157.844V154.916C415.668 155.096 415.2 155.264 414.732 155.408L414.528 154.544C415.068 154.412 415.596 154.244 416.124 154.04V151.328H414.672V150.5H416.124V148.232H417.012V150.5H418.224V151.328H417.012V153.668C417.36 153.5 417.708 153.332 418.044 153.14V154.016C417.708 154.196 417.36 154.364 417.012 154.532V158.072C417.012 158.744 416.664 159.092 415.98 159.092ZM419.16 148.616H424.392V152.78H419.16V148.616ZM423.552 152.072V151.04H420V152.072H423.552ZM420 150.368H423.552V149.324H420V150.368ZM418.32 153.62H425.184V154.388H422.184V155.744H424.692V156.524H422.184V158.072C422.664 158.144 423.228 158.18 423.888 158.18C424.512 158.18 425.052 158.156 425.496 158.12L425.256 158.96C424.776 158.96 424.332 158.948 423.948 158.948C422.364 158.936 421.284 158.78 420.708 158.492C420.252 158.252 419.832 157.796 419.472 157.124C419.184 157.868 418.788 158.552 418.272 159.176L417.636 158.624C418.548 157.52 419.052 156.272 419.148 154.904L419.916 154.988C419.892 155.42 419.832 155.828 419.736 156.236C420.12 157.04 420.564 157.556 421.068 157.784C421.152 157.82 421.248 157.856 421.356 157.892V154.388H418.32V153.62ZM432.564 155.912V156.764C432.192 156.86 431.832 156.944 431.472 157.028V159.2H430.632V157.22C429.384 157.484 428.1 157.712 426.756 157.904L426.552 157.064C426.912 157.016 427.272 156.956 427.632 156.908V149.48H426.684V148.664H432.396V149.312H437.04V150.104C436.776 152.324 436.224 154.22 435.396 155.792C435.972 156.776 436.692 157.688 437.544 158.516L436.968 159.176C436.164 158.348 435.492 157.484 434.94 156.584C434.292 157.592 433.524 158.456 432.624 159.164L432.036 158.492C433.008 157.724 433.812 156.812 434.46 155.732C433.572 154.028 433.044 152.168 432.876 150.152H432.396V149.48H431.472V156.176C431.844 156.092 432.204 156.008 432.564 155.912ZM433.668 150.152C433.812 151.88 434.232 153.452 434.916 154.88C435.564 153.512 436.008 151.94 436.224 150.152H433.668ZM430.632 156.368V154.736H428.472V156.776C429.204 156.656 429.924 156.512 430.632 156.368ZM428.472 153.956H430.632V152.132H428.472V153.956ZM428.472 151.34H430.632V149.48H428.472V151.34ZM438.768 150.224H443.736C443.412 149.588 443.016 148.988 442.536 148.424L443.4 148.112C443.856 148.688 444.264 149.396 444.648 150.224H449.232V151.088H447.36C446.772 152.984 445.884 154.58 444.708 155.852C445.98 156.932 447.576 157.82 449.496 158.528L449.028 159.248C447.036 158.504 445.404 157.58 444.108 156.464C442.74 157.724 441.036 158.648 438.996 159.236L438.54 158.48C440.556 157.94 442.212 157.088 443.508 155.912C442.116 154.544 441.156 152.936 440.616 151.088H438.768V150.224ZM441.468 151.088C441.984 152.708 442.86 154.112 444.108 155.312C445.176 154.148 445.956 152.744 446.46 151.088H441.468ZM461.088 149.432V152.108H460.224V150.26H451.776V152.108H450.912V149.432H455.628C455.46 149 455.28 148.616 455.088 148.268L456.072 148.1C456.24 148.496 456.408 148.94 456.564 149.432H461.088ZM452.76 151.556H459.204V152.36C458.424 152.912 457.548 153.44 456.588 153.968V154.772H461.316V155.612H456.588V158.156C456.588 158.816 456.24 159.152 455.544 159.152H454.068L453.864 158.36C454.284 158.372 454.74 158.384 455.244 158.384C455.556 158.384 455.712 158.204 455.712 157.856V155.612H450.696V154.772H455.712V153.596C456.684 153.092 457.416 152.672 457.908 152.36H452.76V151.556Z" fill="#0D0D0D" fill-opacity="0.9"/>
<path d="M391.666 193.233H390.916C390.916 193.501 391.059 193.748 391.29 193.882L391.666 193.233ZM397.999 196.9L397.624 197.549C397.856 197.683 398.143 197.683 398.375 197.549L397.999 196.9ZM404.333 193.233L404.708 193.882C404.94 193.748 405.083 193.501 405.083 193.233H404.333ZM397.999 183.1L398.371 182.448C398.141 182.317 397.858 182.317 397.628 182.448L397.999 183.1ZM397.999 186.71L398.378 186.063L397.999 185.841L397.62 186.063L397.999 186.71ZM404.333 186.71H405.083C405.083 186.44 404.938 186.192 404.704 186.058L404.333 186.71ZM391.666 186.71L391.295 186.058C391.061 186.192 390.916 186.441 390.916 186.71H391.666ZM401.37 189.552C401.728 189.761 402.187 189.641 402.396 189.284C402.606 188.926 402.486 188.467 402.128 188.258L401.37 189.552ZM393.871 188.258C393.513 188.467 393.393 188.926 393.603 189.284C393.812 189.641 394.271 189.761 394.629 189.552L393.871 188.258ZM390.916 187.505V193.233H392.416V187.505H390.916ZM391.29 193.882L397.624 197.549L398.375 196.251L392.042 192.584L391.29 193.882ZM398.375 197.549L404.708 193.882L403.957 192.584L397.624 196.251L398.375 197.549ZM405.083 193.233V187.505H403.583V193.233H405.083ZM403.962 186.853L397.629 190.453L398.37 191.757L404.703 188.157L403.962 186.853ZM398.37 190.453L392.037 186.853L391.295 188.157L397.629 191.757L398.37 190.453ZM397.628 183.751L403.961 187.361L404.704 186.058L398.371 182.448L397.628 183.751ZM403.583 186.71V187.505H405.083V186.71H403.583ZM392.037 187.362L398.371 183.751L397.628 182.448L391.295 186.058L392.037 187.362ZM390.916 186.71V187.505H392.416V186.71H390.916ZM397.62 187.357L401.37 189.552L402.128 188.258L398.378 186.063L397.62 187.357ZM394.629 189.552L398.378 187.357L397.62 186.063L393.871 188.258L394.629 189.552ZM397.249 191.105V196.9H398.749V191.105H397.249Z" fill="#333333"/>
<path d="M418.848 185.756L419.616 185.852C419.52 186.08 419.424 186.296 419.304 186.512H422.472V187.112C422.136 187.748 421.632 188.312 420.948 188.792C421.752 189.176 422.664 189.5 423.696 189.74L423.24 190.388C422.076 190.076 421.08 189.692 420.24 189.224C419.316 189.716 418.176 190.112 416.808 190.412L416.424 189.716C417.66 189.5 418.704 189.188 419.544 188.792C419.076 188.48 418.668 188.144 418.332 187.784C417.972 188.12 417.564 188.432 417.108 188.72L416.628 188.096C417.72 187.448 418.464 186.668 418.848 185.756ZM420.24 188.42C420.828 188.06 421.284 187.64 421.608 187.16H418.884C418.836 187.208 418.8 187.256 418.776 187.304C419.196 187.712 419.688 188.084 420.24 188.42ZM417.864 191.648C419.46 191.948 420.996 192.38 422.46 192.932L422.172 193.628C420.684 193.052 419.136 192.608 417.528 192.296L417.864 191.648ZM419.112 189.968C420.048 190.28 420.912 190.664 421.692 191.096L421.284 191.72C420.456 191.216 419.604 190.832 418.716 190.544L419.112 189.968ZM424.896 184.724V195.2H424.056V194.708H415.944V195.2H415.104V184.724H424.896ZM415.944 193.94H424.056V185.492H415.944V193.94ZM429.72 188.216V188.936C429.708 189.38 429.684 189.8 429.66 190.196H435.24V195.224H434.376V191.036H429.552C429.264 192.836 428.604 194.228 427.584 195.188L426.924 194.612C428.184 193.424 428.82 191.528 428.844 188.936V184.532H429.72V187.388H433.236V184.196H434.088V187.388H436.788V188.216H429.72ZM439.08 192.824L438.816 192.092C438.984 192.02 439.08 191.924 439.08 191.804V185.228H439.92V191.78C440.52 191.612 441.12 191.408 441.72 191.18V184.256H442.572V195.128H441.72V192.02C440.88 192.32 439.992 192.584 439.08 192.824ZM445.02 186.872C444.876 187.256 444.732 187.616 444.576 187.952C445.008 189.128 445.56 190.208 446.256 191.192C446.976 189.968 447.36 188.528 447.432 186.872H445.02ZM444.072 188.888C443.844 189.248 443.604 189.572 443.352 189.872L442.812 189.212C443.796 187.964 444.468 186.272 444.816 184.16L445.68 184.304C445.56 184.916 445.428 185.492 445.284 186.02H449.292V186.872H448.26C448.176 188.84 447.696 190.532 446.808 191.924C447.6 192.908 448.512 193.784 449.568 194.552L448.98 195.248C447.936 194.468 447.036 193.604 446.28 192.668C445.488 193.664 444.468 194.492 443.22 195.164L442.728 194.384C443.988 193.76 444.996 192.956 445.74 191.972C445.068 191.012 444.504 189.992 444.072 188.888ZM450.78 184.964H453.576V184.196H454.464V184.964H457.548V184.208H458.436V184.964H461.232V185.72H458.436V186.38H459.048V187.052H460.008C459.888 186.728 459.756 186.428 459.612 186.152L460.344 186.032C460.464 186.332 460.596 186.668 460.716 187.052H461.316V187.784H459.06C459.108 189.308 459.204 190.484 459.348 191.3C459.372 191.444 459.396 191.576 459.42 191.696C459.756 190.808 459.984 189.776 460.104 188.588L460.836 188.744C460.644 190.448 460.272 191.828 459.708 192.908C459.78 193.148 459.852 193.352 459.936 193.52C460.152 193.976 460.332 194.216 460.452 194.216C460.596 194.204 460.74 193.664 460.86 192.584L461.484 192.932C461.28 194.42 460.98 195.164 460.596 195.164C460.284 195.164 459.936 194.864 459.576 194.288C459.456 194.096 459.36 193.892 459.264 193.652C458.808 194.276 458.28 194.768 457.68 195.128L457.272 194.48L457.476 194.348H454.332V188.492H457.752V189.188H456.696V190.232H457.74V192.512H456.696V193.652H457.752V194.144C458.208 193.76 458.604 193.292 458.94 192.728C458.832 192.38 458.736 192.008 458.664 191.6C458.472 190.616 458.352 189.344 458.304 187.784H453.66V191.444C453.636 193.004 453.36 194.252 452.832 195.2L452.208 194.636C452.64 193.868 452.856 192.812 452.88 191.444V191.312H451.92C451.872 192.92 451.572 194.036 451.044 194.672L450.444 194.204C450.924 193.676 451.188 192.716 451.236 191.312H450.552V190.592H452.88V189.38H451.044V186.644H451.788V188.66H452.88V187.052H458.292V186.56H457.548V185.72H454.464V186.548H453.576V185.72H450.78V184.964ZM456.012 189.188H455.04V190.232H456.012V189.188ZM455.04 190.868V191.864H457.068V190.868H455.04ZM455.04 192.512V193.652H456.012V192.512H455.04Z" fill="#0D0D0D" fill-opacity="0.9"/>
</g>
</g>
<rect x="0.5" y="0.5" width="555" height="279" rx="11.5" stroke="#0D0D0D" stroke-opacity="0.06"/>
<defs>
<filter id="filter0_ddd_4035_14853" x="-95.7745" y="-20.7682" width="672.964" height="435.646" filterUnits="userSpaceOnUse" color-interpolation-filters="sRGB">
<feFlood flood-opacity="0" result="BackgroundImageFix"/>
<feColorMatrix in="SourceAlpha" type="matrix" values="0 0 0 0 0 0 0 0 0 0 0 0 0 0 0 0 0 0 127 0" result="hardAlpha"/>
<feOffset dy="6.78049"/>
<feGaussianBlur stdDeviation="10.1707"/>
<feComposite in2="hardAlpha" operator="out"/>
<feColorMatrix type="matrix" values="0 0 0 0 0 0 0 0 0 0 0 0 0 0 0 0 0 0 0.08 0"/>
<feBlend mode="normal" in2="BackgroundImageFix" result="effect1_dropShadow_4035_14853"/>
<feColorMatrix in="SourceAlpha" type="matrix" values="0 0 0 0 0 0 0 0 0 0 0 0 0 0 0 0 0 0 127 0" result="hardAlpha"/>
<feOffset dx="-10.1707" dy="8.47561"/>
<feGaussianBlur stdDeviation="14.4085"/>
<feColorMatrix type="matrix" values="0 0 0 0 0 0 0 0 0 0 0 0 0 0 0 0 0 0 0.05 0"/>
<feBlend mode="normal" in2="effect1_dropShadow_4035_14853" result="effect2_dropShadow_4035_14853"/>
<feColorMatrix in="SourceAlpha" type="matrix" values="0 0 0 0 0 0 0 0 0 0 0 0 0 0 0 0 0 0 127 0" result="hardAlpha"/>
<feOffset dx="-42.378" dy="32.2073"/>
<feGaussianBlur stdDeviation="26.2744"/>
<feColorMatrix type="matrix" values="0 0 0 0 0 0 0 0 0 0 0 0 0 0 0 0 0 0 0.03 0"/>
<feBlend mode="normal" in2="effect2_dropShadow_4035_14853" result="effect3_dropShadow_4035_14853"/>
<feBlend mode="normal" in="SourceGraphic" in2="effect3_dropShadow_4035_14853" result="shape"/>
</filter>
<filter id="filter1_i_4035_14853" x="0" y="0.420898" width="556" height="44.2145" filterUnits="userSpaceOnUse" color-interpolation-filters="sRGB">
<feFlood flood-opacity="0" result="BackgroundImageFix"/>
<feBlend mode="normal" in="SourceGraphic" in2="BackgroundImageFix" result="shape"/>
<feColorMatrix in="SourceAlpha" type="matrix" values="0 0 0 0 0 0 0 0 0 0 0 0 0 0 0 0 0 0 127 0" result="hardAlpha"/>
<feOffset dy="0.565041"/>
<feGaussianBlur stdDeviation="0.0706301"/>
<feComposite in2="hardAlpha" operator="arithmetic" k2="-1" k3="1"/>
<feColorMatrix type="matrix" values="0 0 0 0 1 0 0 0 0 1 0 0 0 0 1 0 0 0 0.7 0"/>
<feBlend mode="normal" in2="shape" result="effect1_innerShadow_4035_14853"/>
</filter>
<filter id="filter2_d_4035_14853" x="341" y="109" width="224" height="150" filterUnits="userSpaceOnUse" color-interpolation-filters="sRGB">
<feFlood flood-opacity="0" result="BackgroundImageFix"/>
<feColorMatrix in="SourceAlpha" type="matrix" values="0 0 0 0 0 0 0 0 0 0 0 0 0 0 0 0 0 0 127 0" result="hardAlpha"/>
<feOffset dy="12"/>
<feGaussianBlur stdDeviation="16"/>
<feColorMatrix type="matrix" values="0 0 0 0 0.0509804 0 0 0 0 0.0509804 0 0 0 0 0.0509804 0 0 0 0.08 0"/>
<feBlend mode="normal" in2="BackgroundImageFix" result="effect1_dropShadow_4035_14853"/>
<feBlend mode="normal" in="SourceGraphic" in2="effect1_dropShadow_4035_14853" result="shape"/>
</filter>
<clipPath id="clip0_4035_14853">
<rect width="556" height="280" rx="12" fill="white"/>
</clipPath>
<clipPath id="clip1_4035_14853">
<rect y="0.420898" width="556" height="328.854" rx="13.561" fill="white"/>
</clipPath>
<clipPath id="clip2_4035_14853">
<path d="M0 0.420898H556V44.4941H0V0.420898Z" fill="white"/>
</clipPath>
<clipPath id="clip3_4035_14853">
<rect width="9.04065" height="9.04065" fill="white" transform="translate(464.463 29.8032)"/>
</clipPath>
<clipPath id="clip4_4035_14853">
<rect width="9.04065" height="9.04065" fill="white" transform="translate(480.285 29.8032)"/>
</clipPath>
<clipPath id="clip5_4035_14853">
<rect width="556" height="235" fill="white" transform="translate(0 44.4941)"/>
</clipPath>
<clipPath id="clip6_4035_14853">
<rect x="52" y="124" width="364" height="140" rx="2" fill="white"/>
</clipPath>
</defs>
</svg>
