<svg width="100" height="101" viewBox="0 0 100 101" fill="none" xmlns="http://www.w3.org/2000/svg">
<mask id="path-1-inside-1_1783_3276" fill="white">
<path fill-rule="evenodd" clip-rule="evenodd" d="M20.005 10.5049C17.7939 10.5021 16 12.2938 16 14.5049V86.4998C16 88.709 17.7909 90.4998 20 90.4998H79C81.2091 90.4998 83 88.709 83 86.4998V29.4999C83 28.3953 82.1046 27.4999 81 27.4999H66V12.5602C66 11.4566 65.1061 10.5616 64.0025 10.5602L20.005 10.5049ZM37 54.5C39.2091 54.5 41 52.7091 41 50.5C41 48.2909 39.2091 46.5 37 46.5C34.7909 46.5 33 48.2909 33 50.5C33 52.7091 34.7909 54.5 37 54.5ZM50 54.5C52.2091 54.5 54 52.7091 54 50.5C54 48.2909 52.2091 46.5 50 46.5C47.7909 46.5 46 48.2909 46 50.5C46 52.7091 47.7909 54.5 50 54.5ZM67 50.5C67 52.7091 65.2091 54.5 63 54.5C60.7909 54.5 59 52.7091 59 50.5C59 48.2909 60.7909 46.5 63 46.5C65.2091 46.5 67 48.2909 67 50.5Z"/>
</mask>
<path fill-rule="evenodd" clip-rule="evenodd" d="M20.005 10.5049C17.7939 10.5021 16 12.2938 16 14.5049V86.4998C16 88.709 17.7909 90.4998 20 90.4998H79C81.2091 90.4998 83 88.709 83 86.4998V29.4999C83 28.3953 82.1046 27.4999 81 27.4999H66V12.5602C66 11.4566 65.1061 10.5616 64.0025 10.5602L20.005 10.5049ZM37 54.5C39.2091 54.5 41 52.7091 41 50.5C41 48.2909 39.2091 46.5 37 46.5C34.7909 46.5 33 48.2909 33 50.5C33 52.7091 34.7909 54.5 37 54.5ZM50 54.5C52.2091 54.5 54 52.7091 54 50.5C54 48.2909 52.2091 46.5 50 46.5C47.7909 46.5 46 48.2909 46 50.5C46 52.7091 47.7909 54.5 50 54.5ZM67 50.5C67 52.7091 65.2091 54.5 63 54.5C60.7909 54.5 59 52.7091 59 50.5C59 48.2909 60.7909 46.5 63 46.5C65.2091 46.5 67 48.2909 67 50.5Z" fill="#B4C0CF" fill-opacity="0.4"/>
<path d="M20.005 10.5049L20.0044 11.0049L20.005 10.5049ZM66 27.4999H65.5V27.9999H66V27.4999ZM64.0025 10.5602L64.0019 11.0602L64.0025 10.5602ZM16.5 14.5049C16.5 12.5702 18.0697 11.0025 20.0044 11.0049L20.0057 10.0049C17.5182 10.0018 15.5 12.0174 15.5 14.5049H16.5ZM16.5 86.4998V14.5049H15.5V86.4998H16.5ZM20 89.9998C18.067 89.9998 16.5 88.4328 16.5 86.4998H15.5C15.5 88.9851 17.5147 90.9998 20 90.9998V89.9998ZM79 89.9998H20V90.9998H79V89.9998ZM82.5 86.4998C82.5 88.4328 80.933 89.9998 79 89.9998V90.9998C81.4853 90.9998 83.5 88.9851 83.5 86.4998H82.5ZM82.5 29.4999V86.4998H83.5V29.4999H82.5ZM81 27.9999C81.8284 27.9999 82.5 28.6714 82.5 29.4999H83.5C83.5 28.1191 82.3807 26.9999 81 26.9999V27.9999ZM66 27.9999H81V26.9999H66V27.9999ZM65.5 12.5602V27.4999H66.5V12.5602H65.5ZM64.0019 11.0602C64.8296 11.0612 65.5 11.7325 65.5 12.5602H66.5C66.5 11.1807 65.3826 10.0619 64.0031 10.0602L64.0019 11.0602ZM20.0044 11.0049L64.0019 11.0602L64.0031 10.0602L20.0057 10.0049L20.0044 11.0049ZM40.5 50.5C40.5 52.433 38.933 54 37 54V55C39.4853 55 41.5 52.9853 41.5 50.5H40.5ZM37 47C38.933 47 40.5 48.567 40.5 50.5H41.5C41.5 48.0147 39.4853 46 37 46V47ZM33.5 50.5C33.5 48.567 35.067 47 37 47V46C34.5147 46 32.5 48.0147 32.5 50.5H33.5ZM37 54C35.067 54 33.5 52.433 33.5 50.5H32.5C32.5 52.9853 34.5147 55 37 55V54ZM53.5 50.5C53.5 52.433 51.933 54 50 54V55C52.4853 55 54.5 52.9853 54.5 50.5H53.5ZM50 47C51.933 47 53.5 48.567 53.5 50.5H54.5C54.5 48.0147 52.4853 46 50 46V47ZM46.5 50.5C46.5 48.567 48.067 47 50 47V46C47.5147 46 45.5 48.0147 45.5 50.5H46.5ZM50 54C48.067 54 46.5 52.433 46.5 50.5H45.5C45.5 52.9853 47.5147 55 50 55V54ZM63 55C65.4853 55 67.5 52.9853 67.5 50.5H66.5C66.5 52.433 64.933 54 63 54V55ZM58.5 50.5C58.5 52.9853 60.5147 55 63 55V54C61.067 54 59.5 52.433 59.5 50.5H58.5ZM63 46C60.5147 46 58.5 48.0147 58.5 50.5H59.5C59.5 48.567 61.067 47 63 47V46ZM67.5 50.5C67.5 48.0147 65.4853 46 63 46V47C64.933 47 66.5 48.567 66.5 50.5H67.5Z" fill="url(#paint0_linear_1783_3276)" mask="url(#path-1-inside-1_1783_3276)"/>
<path fill-rule="evenodd" clip-rule="evenodd" d="M67 26.5H81.9716C82.5396 26.5 83 26.0396 83 25.4716C83 25.1989 82.8917 24.9373 82.6988 24.7444L68.7556 10.8012C68.354 10.3996 67.7028 10.3996 67.3012 10.8012C67.1083 10.9941 67 11.2557 67 11.5284L67 26.5Z" fill="#8399B5" fill-opacity="0.4"/>
<defs>
<linearGradient id="paint0_linear_1783_3276" x1="80.9063" y1="88.8784" x2="15.1896" y2="13.666" gradientUnits="userSpaceOnUse">
<stop stop-color="#9BA6B3" stop-opacity="0.6"/>
<stop offset="1" stop-color="#9BA6B2" stop-opacity="0.05"/>
</linearGradient>
</defs>
</svg>
