<svg width="432" height="134" viewBox="0 0 432 134" fill="none" xmlns="http://www.w3.org/2000/svg">
<rect width="432" height="134" fill="url(#paint0_linear_1970_53321)"/>
<path d="M23.266 20.646L23.742 21.472C22.93 21.836 22.076 22.13 21.208 22.368V25.882H24.96V20.702H25.982V25.882H29.216V26.862H25.982V33.386H24.96V26.862H21.194C21.026 29.83 19.878 32 17.722 33.4L16.966 32.742C18.954 31.482 20.018 29.522 20.158 26.862H16.77V25.882H20.172V22.62C19.276 22.816 18.338 22.942 17.386 23.026L17.064 22.116C19.528 21.878 21.6 21.388 23.266 20.646ZM34.872 30.446V31.398C33.64 31.902 32.254 32.308 30.686 32.602L30.56 31.622C32.198 31.328 33.64 30.936 34.872 30.446ZM33.164 20.548L34.116 20.926C33.388 22.69 32.646 24.09 31.89 25.126C32.562 25.056 33.234 24.972 33.906 24.86C34.172 24.384 34.452 23.894 34.746 23.376L35.628 23.698C34.312 25.966 33.234 27.59 32.366 28.556C33.374 28.374 34.396 28.122 35.404 27.814V28.724C33.92 29.172 32.492 29.466 31.134 29.634L30.868 28.724C31.05 28.654 31.204 28.556 31.33 28.444C31.89 27.912 32.562 27.03 33.346 25.77C32.534 25.896 31.722 26.008 30.91 26.106L30.658 25.182C30.812 25.126 30.952 25 31.078 24.818C31.876 23.572 32.576 22.144 33.164 20.548ZM36.986 22.088H35.6V21.136H41.746V21.766C41.522 23.026 41.298 24.104 41.074 25H42.852V25.56C42.558 27.492 41.914 29.13 40.906 30.46C41.634 31.244 42.488 31.93 43.468 32.546L42.838 33.386C41.858 32.742 41.004 32.014 40.304 31.202C39.464 32.098 38.428 32.826 37.224 33.414L36.664 32.49C37.84 31.916 38.834 31.202 39.632 30.362C38.792 29.228 38.148 27.94 37.714 26.512C37.294 29.466 36.37 31.748 34.956 33.344L34.214 32.686C36.034 30.642 36.958 27.366 36.986 22.844V22.088ZM40.22 29.662C41.032 28.584 41.564 27.324 41.844 25.882H39.898C40.15 25.014 40.416 23.754 40.71 22.088H37.966V22.844C37.966 23.362 37.952 23.866 37.924 24.342C38.274 26.386 39.044 28.164 40.22 29.662ZM50.636 20.562H51.364C53.142 22.55 55.186 24.118 57.496 25.266L56.95 26.232C54.626 25.014 52.652 23.418 51 21.458C49.488 23.306 47.486 24.902 44.994 26.246L44.462 25.28C46.926 24.02 48.984 22.452 50.636 20.562ZM47.584 24.86H54.458V25.812H47.584V24.86ZM45.386 27.674H56.642V28.654H50.048C49.376 29.97 48.564 31.118 47.612 32.112C49.894 31.972 52.064 31.776 54.136 31.496C53.66 30.88 53.142 30.236 52.568 29.592L53.352 29.088C54.626 30.516 55.606 31.748 56.292 32.798L55.452 33.386C55.214 33.008 54.962 32.63 54.682 32.238C52.498 32.588 49.74 32.868 46.394 33.064L46.114 32.182C46.366 32.112 46.534 32.028 46.646 31.916C47.542 30.88 48.298 29.802 48.9 28.654H45.386V27.674ZM69.718 25.644V30.866H68.724V26.568H61.29V31.034H60.296V25.644H69.718ZM61.136 21.08H68.878V24.594H61.136V21.08ZM67.898 23.712V21.976H62.116V23.712H67.898ZM64.622 27.478L65.644 27.562C65.448 29.62 65.014 31.006 64.342 31.734C63.614 32.602 61.948 33.162 59.344 33.4L58.952 32.49C61.22 32.35 62.732 31.902 63.474 31.132C64.118 30.418 64.51 29.2 64.622 27.478ZM66.008 30.726C67.828 31.244 69.494 31.874 71.006 32.602L70.46 33.442C68.85 32.602 67.198 31.958 65.504 31.482L66.008 30.726ZM72.84 21.64H76.116V20.492H77.152V21.64H80.848V20.492H81.884V21.64H85.16V22.55H81.884V23.572H80.848V22.55H77.152V23.572H76.116V22.55H72.84V21.64ZM76.774 23.908L77.614 24.426C77.11 25.07 76.62 25.616 76.116 26.064C76.802 27.226 77.152 28.654 77.152 30.348C77.152 31.58 76.97 32.434 76.606 32.91C76.34 33.19 75.948 33.33 75.43 33.33C74.87 33.33 74.436 33.316 74.1 33.302L73.82 32.378C74.254 32.42 74.716 32.448 75.192 32.448C75.542 32.448 75.794 32.322 75.934 32.098C76.102 31.804 76.186 31.202 76.2 30.278C76.2 29.83 76.172 29.41 76.116 29.018C75.36 29.788 74.45 30.432 73.414 30.964L72.868 30.138C74.156 29.55 75.178 28.822 75.92 27.982C75.78 27.492 75.612 27.058 75.388 26.666C74.786 27.1 74.058 27.534 73.204 27.954L72.672 27.114C73.484 26.778 74.212 26.372 74.856 25.868C74.436 25.364 73.918 24.93 73.33 24.594L74.072 23.964C74.66 24.328 75.164 24.762 75.57 25.266C75.99 24.86 76.396 24.412 76.774 23.908ZM77.838 26.358H80.722C80.75 25.35 80.764 24.566 80.764 24.02H81.772C81.772 24.678 81.758 25.462 81.744 26.358H84.964V27.31H81.828C82.388 29.578 83.536 31.342 85.3 32.574L84.628 33.33C83.018 32.112 81.94 30.558 81.408 28.654C80.848 30.544 79.784 32.126 78.23 33.386L77.558 32.658C79.378 31.132 80.414 29.354 80.666 27.31H77.838V26.358ZM83.172 23.726C83.872 24.398 84.404 24.986 84.782 25.49L84.026 26.022C83.634 25.462 83.102 24.846 82.416 24.188L83.172 23.726ZM90.34 21.808C91.264 21.808 92.02 22.074 92.622 22.606C93.21 23.138 93.518 23.852 93.518 24.72C93.518 25.588 93.182 26.372 92.538 27.072C92.188 27.436 91.502 27.982 90.466 28.682C89.192 29.536 88.464 30.306 88.282 30.978H93.532V32H86.868C86.868 31.09 87.19 30.264 87.862 29.522C88.254 29.074 88.968 28.472 90.032 27.744C90.816 27.184 91.334 26.778 91.6 26.498C92.104 25.952 92.37 25.35 92.37 24.706C92.37 24.09 92.188 23.628 91.824 23.292C91.46 22.956 90.942 22.788 90.298 22.788C89.612 22.788 89.08 23.012 88.716 23.488C88.324 23.936 88.114 24.608 88.1 25.49H86.952C86.952 24.37 87.274 23.474 87.89 22.816C88.506 22.144 89.332 21.808 90.34 21.808ZM98.5945 21.808C99.7845 21.808 100.681 22.326 101.297 23.39C101.829 24.286 102.095 25.49 102.095 27.002C102.095 28.514 101.829 29.718 101.297 30.614C100.681 31.664 99.7845 32.196 98.5945 32.196C97.3905 32.196 96.4945 31.664 95.8925 30.614C95.3605 29.718 95.0945 28.514 95.0945 27.002C95.0945 25.49 95.3605 24.286 95.8925 23.39C96.4945 22.326 97.3905 21.808 98.5945 21.808ZM98.5945 22.788C97.6985 22.788 97.0545 23.264 96.6625 24.23C96.3825 24.902 96.2425 25.826 96.2425 27.002C96.2425 28.164 96.3825 29.088 96.6625 29.774C97.0545 30.726 97.6985 31.216 98.5945 31.216C99.4905 31.216 100.135 30.726 100.527 29.774C100.807 29.088 100.961 28.164 100.961 27.002C100.961 25.826 100.807 24.902 100.527 24.23C100.135 23.264 99.4905 22.788 98.5945 22.788ZM106.989 21.808C108.179 21.808 109.075 22.326 109.691 23.39C110.223 24.286 110.489 25.49 110.489 27.002C110.489 28.514 110.223 29.718 109.691 30.614C109.075 31.664 108.179 32.196 106.989 32.196C105.785 32.196 104.889 31.664 104.287 30.614C103.755 29.718 103.489 28.514 103.489 27.002C103.489 25.49 103.755 24.286 104.287 23.39C104.889 22.326 105.785 21.808 106.989 21.808ZM106.989 22.788C106.093 22.788 105.449 23.264 105.057 24.23C104.777 24.902 104.637 25.826 104.637 27.002C104.637 28.164 104.777 29.088 105.057 29.774C105.449 30.726 106.093 31.216 106.989 31.216C107.885 31.216 108.529 30.726 108.921 29.774C109.201 29.088 109.355 28.164 109.355 27.002C109.355 25.826 109.201 24.902 108.921 24.23C108.529 23.264 107.885 22.788 106.989 22.788ZM114.95 24.846H115.902V27.898H118.954V28.85H115.902V31.916H114.95V28.85H111.884V27.898H114.95V24.846ZM126.87 26.988H132.246V31.342H126.87V26.988ZM131.322 30.46V27.884H127.766V30.46H131.322ZM120.836 22.452H122.964V20.548H123.93V22.452H126.03V23.348H123.93V25.42H126.002V26.344H124.21V28.318H126.016V29.242H124.21V31.678C124.294 31.72 124.364 31.748 124.434 31.776C125.26 32.056 127.164 32.21 130.132 32.21C131.42 32.196 132.386 32.182 133.016 32.154L132.848 33.162H130.356C126.87 33.162 124.686 32.952 123.818 32.56C123.062 32.21 122.376 31.594 121.788 30.712C121.592 31.664 121.34 32.546 121.004 33.372L120.276 32.714C120.892 31.09 121.242 29.256 121.298 27.24L122.166 27.338C122.138 28.066 122.082 28.766 121.998 29.438C122.362 30.124 122.782 30.67 123.258 31.076V26.344H120.668V25.42H122.964V23.348H120.836V22.452ZM128.438 22.172H126.506V21.248H132.442C132.442 23.628 132.302 25.056 132.036 25.532C131.784 26.008 131.336 26.246 130.692 26.246C130.412 26.246 130.09 26.218 129.698 26.19L129.446 25.308L130.468 25.378C130.902 25.364 131.168 25.182 131.28 24.832C131.392 24.496 131.462 23.614 131.476 22.172H129.376C129.194 23.166 128.956 23.95 128.648 24.538C128.256 25.224 127.682 25.84 126.926 26.372L126.268 25.546C126.94 25.098 127.444 24.608 127.78 24.076C128.074 23.586 128.298 22.956 128.438 22.172ZM142.284 20.506L143.278 20.646C143.25 21.066 143.208 21.486 143.18 21.878H146.652V22.802H143.068C143.012 23.222 142.942 23.628 142.886 24.02H145.728V32.056H147.058V32.98H137.888V32.056H139.33V24.02H141.892C141.948 23.614 142.018 23.208 142.074 22.802H138.49V21.878H142.172C142.214 21.416 142.256 20.954 142.284 20.506ZM140.296 32.056H144.762V30.824H140.296V32.056ZM140.296 30.012H144.762V28.836H140.296V30.012ZM140.296 28.024H144.762V26.876H140.296V28.024ZM140.296 26.064H144.762V24.93H140.296V26.064ZM136.166 25.266C135.69 25.994 135.172 26.68 134.598 27.324L134.262 26.26C135.648 24.594 136.656 22.676 137.272 20.52L138.182 20.94C137.902 21.85 137.552 22.718 137.146 23.544V33.4H136.166V25.266ZM151.678 26.106V33.344H150.67V26.078C150.166 27.562 149.48 28.892 148.626 30.082L148.178 28.948C149.326 27.576 150.152 26.022 150.642 24.272H148.472V23.306H150.67V20.576H151.678V23.306H153.526V24.272H151.678V25.07C152.378 25.742 153.092 26.512 153.806 27.352L153.232 28.206C152.63 27.338 152.112 26.638 151.678 26.106ZM159.182 22.382H155.402C155.57 24.538 156.158 26.47 157.18 28.178C158.188 26.498 158.846 24.566 159.182 22.382ZM156.592 29.074C155.346 27.058 154.618 24.832 154.422 22.382H153.862V21.416H160.162V22.368C159.756 24.986 158.958 27.24 157.782 29.116C158.678 30.376 159.798 31.524 161.17 32.546L160.484 33.358C159.168 32.322 158.062 31.188 157.194 29.97C156.214 31.3 155.01 32.42 153.596 33.344L152.952 32.532C154.422 31.552 155.64 30.404 156.592 29.074ZM173.126 27.478V31.972H174.862V32.938H162.472V31.972H164.306V27.478H173.126ZM165.272 31.972H166.924V28.43H165.272V31.972ZM167.848 31.972H169.556V28.43H167.848V31.972ZM170.48 31.972H172.146V28.43H170.48V31.972ZM162.766 23.026H166.322C165.874 22.41 165.3 21.752 164.6 21.038L165.426 20.52C166.196 21.304 166.784 21.976 167.19 22.55L166.532 23.026H170.102C170.676 22.242 171.166 21.416 171.586 20.52L172.566 20.856C172.16 21.668 171.712 22.396 171.208 23.026H174.568V24.006H162.766V23.026ZM170.62 24.524C172.216 25.252 173.658 26.134 174.96 27.17L174.4 28.052C173 26.89 171.558 25.966 170.102 25.294L170.62 24.524ZM166.672 24.44L167.316 25.168C166.112 26.316 164.586 27.282 162.766 28.038L162.332 27.1C164.096 26.428 165.538 25.546 166.672 24.44ZM178.264 30.334C178.572 30.334 178.838 30.46 179.034 30.726C179.216 30.978 179.314 31.3 179.314 31.706C179.314 32.322 179.132 32.868 178.768 33.344C178.404 33.792 177.914 34.1 177.326 34.254V33.568C177.69 33.442 177.984 33.232 178.208 32.952C178.418 32.658 178.516 32.35 178.516 32.014C178.46 32.042 178.348 32.07 178.208 32.07C177.97 32.07 177.774 31.986 177.606 31.818C177.438 31.65 177.354 31.44 177.354 31.202C177.354 30.936 177.438 30.726 177.606 30.572C177.774 30.404 177.984 30.334 178.264 30.334ZM189.73 22.004H191.018L193.216 30.39H193.272L195.554 22.004H196.8L199.068 30.39H199.124L201.322 22.004H202.61L199.74 32H198.466L196.198 23.67H196.156L193.874 32H192.6L189.73 22.004ZM203.684 22.004H207.772C210.068 22.004 211.216 22.984 211.216 24.944C211.216 26.918 210.054 27.912 207.758 27.912H204.832V32H203.684V22.004ZM204.832 22.998V26.918H207.702C208.514 26.918 209.102 26.75 209.494 26.428C209.872 26.106 210.068 25.616 210.068 24.944C210.068 24.272 209.872 23.782 209.48 23.488C209.088 23.152 208.5 22.998 207.702 22.998H204.832ZM216.026 21.808C217.146 21.808 218.042 22.06 218.686 22.578C219.358 23.11 219.736 23.908 219.834 24.958H218.7C218.574 24.23 218.294 23.698 217.86 23.348C217.412 22.984 216.782 22.816 215.97 22.816C215.228 22.816 214.654 22.928 214.234 23.18C213.758 23.46 213.52 23.88 213.52 24.454C213.52 24.958 213.8 25.364 214.374 25.672C214.626 25.812 215.242 26.022 216.208 26.302C217.524 26.694 218.392 27.016 218.812 27.268C219.638 27.772 220.058 28.472 220.058 29.382C220.058 30.25 219.708 30.95 219.008 31.454C218.308 31.944 217.37 32.196 216.18 32.196C215.004 32.196 214.08 31.944 213.408 31.44C212.624 30.838 212.19 29.928 212.106 28.696H213.24C213.338 29.564 213.646 30.208 214.15 30.614C214.612 30.978 215.284 31.174 216.18 31.174C216.992 31.174 217.664 31.02 218.168 30.712C218.672 30.404 218.924 29.984 218.924 29.452C218.924 28.822 218.588 28.332 217.93 27.982C217.65 27.814 216.936 27.576 215.816 27.254C214.612 26.89 213.842 26.61 213.52 26.442C212.75 25.994 212.372 25.35 212.372 24.51C212.372 23.642 212.736 22.956 213.478 22.48C214.136 22.032 214.99 21.808 216.026 21.808ZM227.448 20.52L228.344 20.996C228.092 21.276 227.826 21.542 227.546 21.794H231.564V22.592C230.052 25.28 227.238 26.792 223.15 27.114L222.716 26.204C223.976 26.12 225.096 25.938 226.104 25.644C225.67 25.112 225.208 24.622 224.732 24.188L225.614 23.768C226.118 24.244 226.594 24.748 227.042 25.308C228.498 24.72 229.632 23.838 230.416 22.69H226.328C225.236 23.334 223.948 23.824 222.45 24.16L221.862 23.236C224.354 22.76 226.216 21.864 227.448 20.52ZM226.916 29.27C227.448 29.816 227.966 30.404 228.442 31.034C229.996 30.362 231.214 29.396 232.11 28.164H227.966C226.734 28.752 225.278 29.2 223.584 29.494L222.982 28.598C226.034 28.29 228.288 27.352 229.744 25.812L230.612 26.288C230.276 26.624 229.926 26.946 229.534 27.24H233.37V28.038C231.382 31.342 227.686 33.05 222.254 33.176L221.848 32.21C224.032 32.196 225.922 31.93 227.504 31.398C227.028 30.768 226.538 30.194 226.02 29.69L226.916 29.27ZM235.106 22.9H236.94C236.744 22.172 236.534 21.5 236.296 20.898L237.304 20.73C237.5 21.36 237.696 22.088 237.892 22.9H239.53V23.852H235.106V22.9ZM236.254 24.678C236.548 26.274 236.814 28.122 237.052 30.194L236.226 30.404C236.016 28.514 235.75 26.694 235.428 24.944L236.254 24.678ZM239.516 30.32V31.286C238.228 31.79 236.828 32.196 235.33 32.532L235.078 31.538C235.904 31.398 236.716 31.216 237.5 30.992C237.836 28.948 238.074 26.792 238.228 24.496L239.138 24.622C238.97 26.82 238.704 28.85 238.368 30.726C238.76 30.586 239.152 30.46 239.516 30.32ZM246.166 23.278V21.136H247.118V24.16H240.454V21.136H241.42V23.278H243.282V20.59H244.262V23.278H246.166ZM239.852 25.336H247.818V26.26H244.136C244.038 26.722 243.898 27.17 243.73 27.604H247.412V32.294C247.412 32.994 247.118 33.344 246.53 33.344H245.886L245.648 32.434L246.222 32.476C246.404 32.476 246.502 32.35 246.502 32.098V28.5H245.242V33.12H244.388V28.5H243.254V33.134H242.4V28.5H241.168V33.344H240.258V27.604H242.75C242.918 27.17 243.058 26.722 243.142 26.26H239.852V25.336ZM252.522 26.106V33.344H251.514V26.078C251.01 27.562 250.324 28.892 249.47 30.082L249.022 28.948C250.17 27.576 250.996 26.022 251.486 24.272H249.316V23.306H251.514V20.576H252.522V23.306H254.37V24.272H252.522V25.07C253.222 25.742 253.936 26.512 254.65 27.352L254.076 28.206C253.474 27.338 252.956 26.638 252.522 26.106ZM260.026 22.382H256.246C256.414 24.538 257.002 26.47 258.024 28.178C259.032 26.498 259.69 24.566 260.026 22.382ZM257.436 29.074C256.19 27.058 255.462 24.832 255.266 22.382H254.706V21.416H261.006V22.368C260.6 24.986 259.802 27.24 258.626 29.116C259.522 30.376 260.642 31.524 262.014 32.546L261.328 33.358C260.012 32.322 258.906 31.188 258.038 29.97C257.058 31.3 255.854 32.42 254.44 33.344L253.796 32.532C255.266 31.552 256.484 30.404 257.436 29.074ZM273.97 27.478V31.972H275.706V32.938H263.316V31.972H265.15V27.478H273.97ZM266.116 31.972H267.768V28.43H266.116V31.972ZM268.692 31.972H270.4V28.43H268.692V31.972ZM271.324 31.972H272.99V28.43H271.324V31.972ZM263.61 23.026H267.166C266.718 22.41 266.144 21.752 265.444 21.038L266.27 20.52C267.04 21.304 267.628 21.976 268.034 22.55L267.376 23.026H270.946C271.52 22.242 272.01 21.416 272.43 20.52L273.41 20.856C273.004 21.668 272.556 22.396 272.052 23.026H275.412V24.006H263.61V23.026ZM271.464 24.524C273.06 25.252 274.502 26.134 275.804 27.17L275.244 28.052C273.844 26.89 272.402 25.966 270.946 25.294L271.464 24.524ZM267.516 24.44L268.16 25.168C266.956 26.316 265.43 27.282 263.61 28.038L263.176 27.1C264.94 26.428 266.382 25.546 267.516 24.44ZM277.96 23.404H280.508V20.492H281.53V23.404H285.478V20.548H286.5V23.404H289.062V24.384H286.5V27.758H289.748V28.738H277.26V27.758H280.508V24.384H277.96V23.404ZM281.53 27.758H285.478V24.384H281.53V27.758ZM281.53 29.228L282.286 29.914C281.11 31.23 279.668 32.392 277.96 33.372L277.26 32.476C278.954 31.552 280.382 30.46 281.53 29.228ZM285.59 29.256C287.242 30.362 288.614 31.468 289.734 32.56L288.95 33.358C287.956 32.294 286.598 31.16 284.862 29.956L285.59 29.256ZM293.318 23.53H301.704V26.358H293.318V23.53ZM300.738 25.49V24.398H294.284V25.49H300.738ZM297.35 20.534C297.574 20.898 297.784 21.29 297.98 21.738H303.58V22.69H291.428V21.738H296.874C296.664 21.374 296.44 21.024 296.202 20.716L297.35 20.534ZM291.12 29.9H297.252V29.354C298.12 29.018 299.142 28.612 300.318 28.122H292.478V27.212H302.306V27.94C301.13 28.486 299.772 29.046 298.246 29.634V29.9H303.888V30.824H298.246V32.126C298.246 32.966 297.826 33.4 297 33.4H295.026L294.76 32.476C295.544 32.518 296.16 32.546 296.608 32.546C297.028 32.546 297.252 32.308 297.252 31.832V30.824H291.12V29.9Z" fill="#32230E"/>
<path opacity="0.6" fill-rule="evenodd" clip-rule="evenodd" d="M18 57.3333C17.2636 57.3333 16.6666 57.9302 16.6666 58.6666V65.9999C16.6666 66.7363 17.2636 67.3333 18 67.3333H20.1783C20.0649 67.1371 20 66.9094 20 66.6666V61.3333C20 60.5969 20.5969 59.9999 21.3333 59.9999H26.6666V58.6666C26.6666 57.9302 26.0697 57.3333 25.3333 57.3333H18Z" fill="url(#paint1_linear_1970_53321)"/>
<path fill-rule="evenodd" clip-rule="evenodd" d="M20.6666 61.9998C20.6666 61.2635 21.2636 60.6665 22 60.6665H30C30.7363 60.6665 31.3333 61.2635 31.3333 61.9998V69.9998C31.3333 70.7362 30.7363 71.3332 30 71.3332H22C21.2636 71.3332 20.6666 70.7362 20.6666 69.9998V61.9998ZM17.1666 68.6665C17.4428 68.6665 17.6666 68.8904 17.6666 69.1665C17.6666 69.6937 18.0746 70.1256 18.592 70.1638L18.6666 70.1665C18.9428 70.1665 19.1666 70.3904 19.1666 70.6665C19.1666 70.9426 18.9428 71.1665 18.6666 71.1665C17.5621 71.1665 16.6666 70.2711 16.6666 69.1665C16.6666 68.8904 16.8905 68.6665 17.1666 68.6665ZM26.1666 64.9997V63.4998L27.3332 63.4998C27.9776 63.4998 28.4999 64.0222 28.4999 64.6665C28.4999 65.3109 27.9776 65.8332 27.3333 65.8332L24.6695 65.8333C23.6553 65.8333 22.8332 66.6555 22.8332 67.6696C22.8332 68.6838 23.6554 69.5059 24.6695 69.5059H25.6407C25.9312 69.5059 26.1666 69.2705 26.1666 68.9801L26.1666 67.6663L25.1666 67.6663L25.1666 68.5059H24.6695C24.2076 68.5059 23.8332 68.1315 23.8332 67.6696C23.8332 67.2077 24.2076 66.8333 24.6695 66.8333L27.3333 66.8332C28.5299 66.8332 29.4999 65.8631 29.4999 64.6665C29.4999 63.4699 28.5299 62.4998 27.3332 62.4998L25.6855 62.4998C25.3989 62.4998 25.1666 62.7321 25.1666 63.0187V64.9997H26.1666Z" fill="url(#paint2_linear_1970_53321)"/>
<path d="M40.864 59.432H44.368C46.336 59.432 47.32 60.272 47.32 61.952C47.32 63.644 46.324 64.496 44.356 64.496H41.848V68H40.864V59.432ZM41.848 60.284V63.644H44.308C45.004 63.644 45.508 63.5 45.844 63.224C46.168 62.948 46.336 62.528 46.336 61.952C46.336 61.376 46.168 60.956 45.832 60.704C45.496 60.416 44.992 60.284 44.308 60.284H41.848ZM48.5632 59.432H51.6352C52.9912 59.432 54.0112 59.816 54.7072 60.608C55.3432 61.328 55.6672 62.372 55.6672 63.716C55.6672 65.036 55.3192 66.08 54.6352 66.824C53.9152 67.604 52.8832 68 51.5392 68H48.5632V59.432ZM49.5472 60.284V67.148H51.3712C52.4872 67.148 53.3272 66.848 53.8912 66.26C54.4192 65.684 54.6952 64.832 54.6952 63.716C54.6952 62.564 54.4432 61.712 53.9512 61.16C53.4232 60.572 52.6072 60.284 51.4792 60.284H49.5472ZM57.0359 59.432H62.7719V60.284H58.0199V63.164H62.5199V64.016H58.0199V68H57.0359V59.432ZM66.2177 62.996V69.152H65.3657V63.128C64.9937 64.268 64.5017 65.312 63.9017 66.248L63.5297 65.312C64.3697 64.16 64.9817 62.852 65.3537 61.376H63.7697V60.548H65.3657V58.208H66.2177V60.548H67.5257V61.376H66.2177V62.024C66.7217 62.6 67.2377 63.236 67.7537 63.944L67.7417 63.956C68.7977 63.524 69.7217 63.032 70.4897 62.468C69.9737 61.976 69.5417 61.472 69.2057 60.944C68.8937 61.352 68.5577 61.736 68.2097 62.084L67.6577 61.424C68.5337 60.596 69.2417 59.516 69.7937 58.184L70.6217 58.364C70.5017 58.676 70.3697 58.976 70.2257 59.264H73.6097V59.936C73.1777 60.896 72.5417 61.748 71.7257 62.504C72.5297 63.068 73.5017 63.56 74.6297 63.98L74.2457 64.784C72.9977 64.256 71.9657 63.668 71.1257 63.008C70.2137 63.716 69.0977 64.316 67.7897 64.82L67.4657 64.388L67.2857 64.664C66.8657 63.968 66.5057 63.416 66.2177 62.996ZM73.5857 64.7V69.176H72.7457V68.648H69.3497V69.176H68.5097V64.7H73.5857ZM69.3497 67.844H72.7457V65.504H69.3497V67.844ZM71.0777 62C71.7377 61.424 72.2657 60.788 72.6617 60.092H69.7697C69.7217 60.164 69.6857 60.248 69.6377 60.32C70.0097 60.932 70.4897 61.496 71.0777 62ZM75.8777 60.344H81.7457C81.7097 59.66 81.6977 58.952 81.6977 58.22H82.5857C82.5857 58.964 82.5977 59.672 82.6337 60.344H86.3417V61.184H82.6817C82.8257 63.2 83.1377 64.868 83.6057 66.212C84.1097 67.532 84.5657 68.204 84.9617 68.204C85.2017 68.168 85.4537 67.484 85.7057 66.14L86.4857 66.548C86.1257 68.276 85.6337 69.152 85.0217 69.164C83.9537 69.116 83.0657 67.772 82.3457 65.156C82.0697 64.016 81.8897 62.696 81.7937 61.184H75.8777V60.344ZM76.0577 63.176H81.1457V63.992H79.0337V67.112C79.9217 66.944 80.7737 66.74 81.6137 66.524V67.364C79.8857 67.784 78.0137 68.132 76.0217 68.42L75.8177 67.604C76.6097 67.508 77.4017 67.388 78.1697 67.268V63.992H76.0577V63.176ZM84.3977 58.28C84.7937 58.76 85.1657 59.288 85.5257 59.864L84.8057 60.224C84.4577 59.624 84.0857 59.096 83.6777 58.628L84.3977 58.28ZM90.0017 61.496H90.8297V63.32H92.1617V64.1H90.8297V65.744C91.4177 65.624 91.9697 65.492 92.4977 65.36V66.176C91.9577 66.32 91.4057 66.464 90.8297 66.584V69.188H90.0017V66.752C89.2577 66.884 88.4897 67.004 87.6737 67.112L87.5657 66.26C88.4297 66.152 89.2337 66.032 90.0017 65.9V64.1H87.9857L87.8057 63.332C88.1537 62.612 88.4777 61.712 88.7777 60.608H87.5777V59.768H88.9937C89.1137 59.264 89.2217 58.724 89.3417 58.172L90.1577 58.292C90.0497 58.808 89.9417 59.3 89.8337 59.768H92.1137V60.608H89.6177C89.3297 61.64 89.0177 62.54 88.6817 63.32H90.0017V61.496ZM92.6657 59.768H94.5497C94.6457 59.24 94.7417 58.7 94.8377 58.148L95.6897 58.232C95.5937 58.76 95.5097 59.276 95.4137 59.768H98.3297V60.608H95.2457L94.9337 61.988H98.6297V62.816H94.7297C94.5857 63.368 94.4297 63.872 94.2737 64.34H98.1017V65.06C97.6937 65.876 97.0697 66.692 96.2177 67.508C96.7097 67.808 97.1777 68.12 97.6217 68.456L97.1417 69.188C95.8937 68.228 94.6097 67.46 93.2897 66.908L93.7457 66.224C94.3697 66.488 94.9577 66.788 95.5097 67.1C96.2297 66.464 96.7937 65.804 97.2137 65.108H93.1937C93.4337 64.364 93.6617 63.608 93.8657 62.816H92.3177V61.988H94.0697C94.1777 61.52 94.2857 61.064 94.3817 60.608H92.6657V59.768ZM109.862 61.508V64.772H110.618V65.564H107.594C108.23 66.788 109.262 67.736 110.678 68.432L110.282 69.248C108.698 68.36 107.558 67.184 106.886 65.744C106.382 67.136 105.242 68.3 103.466 69.236L102.902 68.516C104.534 67.748 105.59 66.764 106.07 65.564H103.274V64.772H104.126V61.508H106.862C107.21 61.028 107.558 60.476 107.894 59.84H105.806C105.302 60.536 104.642 61.16 103.85 61.7L103.346 61.028C104.546 60.236 105.362 59.264 105.794 58.124L106.634 58.232C106.526 58.532 106.406 58.82 106.262 59.096H108.806V59.72C108.458 60.416 108.098 61.016 107.738 61.508H109.862ZM104.894 64.772H106.31C106.454 64.076 106.538 63.236 106.562 62.264H104.894V64.772ZM107.138 64.772H109.094V62.264H107.354C107.33 63.26 107.258 64.1 107.138 64.772ZM100.982 69.068H99.9617L99.7817 68.24C100.094 68.276 100.394 68.3 100.682 68.3C100.994 68.3 101.162 68.12 101.162 67.784V64.892C100.682 65.084 100.202 65.252 99.7217 65.408L99.5057 64.544C100.07 64.4 100.622 64.232 101.162 64.028V61.232H99.7337V60.404H101.162V58.208H102.026V60.404H103.25V61.232H102.026V63.68C102.458 63.488 102.878 63.272 103.298 63.032V63.908C102.878 64.124 102.458 64.34 102.026 64.532V68C102.026 68.708 101.678 69.068 100.982 69.068Z" fill="#0D0D0D" fill-opacity="0.9"/>
<path fill-rule="evenodd" clip-rule="evenodd" d="M250 58C249.264 58 248.667 58.597 248.667 59.3333V67.3333C248.667 68.0697 249.264 68.6667 250 68.6667H260C260.736 68.6667 261.333 68.0697 261.333 67.3333V59.3333C261.333 58.597 260.736 58 260 58H250ZM251.481 61.3333C251.481 60.9651 251.78 60.6667 252.148 60.6667H257.852C258.22 60.6667 258.518 60.9651 258.518 61.3333C258.518 61.7015 258.22 62 257.852 62H252.148C251.78 62 251.481 61.7015 251.481 61.3333ZM251.481 64C251.481 63.6318 251.78 63.3333 252.148 63.3333H254.92C255.288 63.3333 255.586 63.6318 255.586 64C255.586 64.3682 255.288 64.6667 254.92 64.6667H252.148C251.78 64.6667 251.481 64.3682 251.481 64Z" fill="url(#paint3_linear_1970_53321)"/>
<path opacity="0.6" fill-rule="evenodd" clip-rule="evenodd" d="M262.667 70.6667C263.403 70.6667 264 70.0698 264 69.3334V62.0001C264 61.2637 263.403 60.6667 262.667 60.6667H262V68.0001C262 68.7365 261.403 69.3334 260.667 69.3334L253.333 69.3334C253.333 70.0698 253.93 70.6667 254.667 70.6667H262.667Z" fill="url(#paint4_linear_1970_53321)"/>
<path d="M272.78 59.864L272.624 59.096C273.944 58.952 275.108 58.688 276.128 58.292L276.404 59.072C275.972 59.216 275.516 59.348 275.048 59.468V61.484H276.488V62.312H275.048V62.804C275.576 63.356 276.116 63.992 276.656 64.712L276.188 65.432C275.744 64.628 275.36 63.992 275.048 63.524V69.152H274.208V63.872C273.848 64.94 273.392 65.912 272.828 66.776L272.456 65.84C273.26 64.796 273.836 63.62 274.172 62.312H272.66V61.484H274.208V59.648C273.752 59.732 273.272 59.804 272.78 59.864ZM280.412 63.032H283.1V69.188H282.284V68.66H277.82V69.188H277.004V63.284C277.844 63.116 278.624 62.876 279.344 62.564L279.848 63.248C279.224 63.5 278.552 63.716 277.82 63.884V65.372H279.716V66.164H277.82V67.856H282.284V66.164H280.436V65.372H282.284V63.824H280.412V63.032ZM282.62 59.912L283.388 60.224C283.052 61.076 282.656 61.808 282.212 62.408L281.528 62.024C282.008 61.328 282.38 60.62 282.62 59.912ZM279.98 60.164C280.256 60.752 280.496 61.424 280.688 62.168L279.896 62.264C279.68 61.508 279.44 60.848 279.176 60.272L279.98 60.164ZM277.556 60.392C277.88 60.944 278.168 61.58 278.42 62.3L277.652 62.492C277.436 61.844 277.148 61.232 276.8 60.632L277.556 60.392ZM282.728 58.316L283.136 59.048C281.6 59.576 279.548 59.84 276.98 59.84L276.716 59.072C279.14 59.06 281.144 58.808 282.728 58.316ZM285.044 59.192H289.556V58.16H290.444V59.192H294.872V59.984H290.444V61.088H294.116V61.868H285.956V61.088H289.556V59.984H285.044V59.192ZM294.836 62.9V65.42H293.972V63.74H286.04V65.432H285.176V62.9H294.836ZM287.732 64.904H292.256V67.76C292.256 68.096 292.46 68.264 292.868 68.264H293.84C294.032 68.264 294.188 68.216 294.284 68.132C294.404 68.036 294.512 67.508 294.608 66.56L295.424 66.824C295.328 67.748 295.196 68.336 295.028 68.6C294.86 68.888 294.512 69.032 293.984 69.032H292.652C291.812 69.032 291.392 68.66 291.392 67.94V65.708H288.596V66.38C288.548 67.916 287.42 68.864 285.212 69.224L284.72 68.48C286.724 68.192 287.732 67.448 287.732 66.272V64.904ZM300.188 59.192H301.94V58.232H302.744V59.192H304.676V58.232H305.492V59.192H307.352V59.96H305.492V60.86H304.676V59.96H302.744V60.86H301.94V59.96H300.188V59.192ZM303.56 66.728C303.416 67.028 303.236 67.304 303.044 67.544C302.492 68.24 301.532 68.78 300.152 69.176L299.84 68.456C301.04 68.132 301.892 67.664 302.42 67.052C302.54 66.896 302.66 66.74 302.756 66.572H299.96V65.78H303.116C303.212 65.492 303.284 65.18 303.344 64.868H300.824V61.232H306.572V64.868H304.112C304.064 65.204 303.992 65.504 303.92 65.78H307.376V66.572H304.34C305.036 67.388 306.092 68.048 307.508 68.552L306.932 69.236C305.372 68.564 304.256 67.736 303.56 66.728ZM299.024 63.056V69.164H298.208V63.188C297.836 64.316 297.368 65.348 296.792 66.272L296.42 65.336C297.248 64.184 297.848 62.888 298.208 61.424V61.352H296.816V60.572H298.208V58.244H299.024V60.572H300.284V61.352H299.024V62.144C299.54 62.768 300.068 63.488 300.62 64.292L300.164 64.976C299.72 64.184 299.336 63.548 299.024 63.056ZM305.792 64.196V63.38H301.604V64.196H305.792ZM301.604 62.732H305.792V61.928H301.604V62.732ZM308.648 60.524H310.352V58.208H311.228V60.524H312.656V61.364H311.228V61.988C311.756 62.552 312.284 63.188 312.824 63.884L312.332 64.616C311.9 63.872 311.54 63.272 311.228 62.816V69.14H310.352V63.14C309.956 64.316 309.44 65.384 308.816 66.344L308.444 65.408C309.332 64.22 309.956 62.876 310.34 61.364H308.648V60.524ZM318.656 58.292L319.088 59.096C317.576 59.528 315.908 59.78 314.072 59.852V61.676H318.812V62.324C318.692 63.932 318.176 65.348 317.264 66.56C317.888 67.268 318.656 67.88 319.568 68.384L319.124 69.152C318.164 68.624 317.36 67.976 316.712 67.232C316.028 67.976 315.188 68.636 314.204 69.212L313.64 68.552C314.672 67.976 315.512 67.304 316.184 66.56C315.368 65.408 314.852 64.064 314.612 62.516H314.072V63.74C314.012 66.02 313.52 67.844 312.596 69.2L311.972 68.552C312.74 67.4 313.16 65.792 313.232 63.74V59.12C315.236 59.084 317.048 58.808 318.656 58.292ZM316.724 65.876C317.42 64.88 317.84 63.764 318.008 62.516H315.38C315.596 63.788 316.04 64.916 316.724 65.876ZM323.444 62.948V69.152H322.58V62.924C322.148 64.196 321.56 65.336 320.828 66.356L320.444 65.384C321.428 64.208 322.136 62.876 322.556 61.376H320.696V60.548H322.58V58.208H323.444V60.548H325.028V61.376H323.444V62.06C324.044 62.636 324.656 63.296 325.268 64.016L324.776 64.748C324.26 64.004 323.816 63.404 323.444 62.948ZM329.876 59.756H326.636C326.78 61.604 327.284 63.26 328.16 64.724C329.024 63.284 329.588 61.628 329.876 59.756ZM327.656 65.492C326.588 63.764 325.964 61.856 325.796 59.756H325.316V58.928H330.716V59.744C330.368 61.988 329.684 63.92 328.676 65.528C329.444 66.608 330.404 67.592 331.58 68.468L330.992 69.164C329.864 68.276 328.916 67.304 328.172 66.26C327.332 67.4 326.3 68.36 325.088 69.152L324.536 68.456C325.796 67.616 326.84 66.632 327.656 65.492ZM341.828 64.124V67.976H343.316V68.804H332.696V67.976H334.268V64.124H341.828ZM335.096 67.976H336.512V64.94H335.096V67.976ZM337.304 67.976H338.768V64.94H337.304V67.976ZM339.56 67.976H340.988V64.94H339.56V67.976ZM332.948 60.308H335.996C335.612 59.78 335.12 59.216 334.52 58.604L335.228 58.16C335.888 58.832 336.392 59.408 336.74 59.9L336.176 60.308H339.236C339.728 59.636 340.148 58.928 340.508 58.16L341.348 58.448C341 59.144 340.616 59.768 340.184 60.308H343.064V61.148H332.948V60.308ZM339.68 61.592C341.048 62.216 342.284 62.972 343.4 63.86L342.92 64.616C341.72 63.62 340.484 62.828 339.236 62.252L339.68 61.592ZM336.296 61.52L336.848 62.144C335.816 63.128 334.508 63.956 332.948 64.604L332.576 63.8C334.088 63.224 335.324 62.468 336.296 61.52Z" fill="#0D0D0D" fill-opacity="0.9"/>
<path fill-rule="evenodd" clip-rule="evenodd" d="M16 95.3333C16 94.597 16.597 94 17.3333 94H29.3333C30.0697 94 30.6667 94.597 30.6667 95.3333V98.4477C30.6667 98.8013 30.5262 99.1405 30.2761 99.3905L24.0572 105.609C23.8071 105.86 23.468 106 23.1144 106H17.3333C16.597 106 16 105.403 16 104.667V95.3333ZM29.8736 101.055C30.1219 100.801 30.5251 100.787 30.791 101.022L31.4567 101.609C31.7372 101.857 31.759 102.287 31.5051 102.562L27.8148 106.555C27.7517 106.624 27.663 106.662 27.57 106.662L26.3438 106.662C26.1597 106.662 26.0105 106.513 26.0105 106.329V105.133C26.0105 105.045 26.0447 104.962 26.1057 104.899L29.8736 101.055ZM27 97.5C27 97.9602 26.6269 98.3333 26.1667 98.3333C25.7064 98.3333 25.3333 97.9602 25.3333 97.5C25.3333 97.0398 25.7064 96.6667 26.1667 96.6667C26.6269 96.6667 27 97.0398 27 97.5ZM20.5185 97.927L18.8562 101.044C18.6194 101.488 18.9412 102.024 19.4444 102.024H25.7812C26.3082 102.024 26.6268 101.442 26.3426 100.998L25.1605 99.1525C24.9165 98.7717 24.3722 98.7391 24.0846 99.0882L23.597 99.6799C23.4616 99.8443 23.2089 99.8413 23.0775 99.6737L21.6314 97.8294C21.3341 97.4503 20.7452 97.5019 20.5185 97.927Z" fill="url(#paint5_linear_1970_53321)"/>
<path d="M44.848 95.756L45.616 95.852C45.52 96.08 45.424 96.296 45.304 96.512H48.472V97.112C48.136 97.748 47.632 98.312 46.948 98.792C47.752 99.176 48.664 99.5 49.696 99.74L49.24 100.388C48.076 100.076 47.08 99.692 46.24 99.224C45.316 99.716 44.176 100.112 42.808 100.412L42.424 99.716C43.66 99.5 44.704 99.188 45.544 98.792C45.076 98.48 44.668 98.144 44.332 97.784C43.972 98.12 43.564 98.432 43.108 98.72L42.628 98.096C43.72 97.448 44.464 96.668 44.848 95.756ZM46.24 98.42C46.828 98.06 47.284 97.64 47.608 97.16H44.884C44.836 97.208 44.8 97.256 44.776 97.304C45.196 97.712 45.688 98.084 46.24 98.42ZM43.864 101.648C45.46 101.948 46.996 102.38 48.46 102.932L48.172 103.628C46.684 103.052 45.136 102.608 43.528 102.296L43.864 101.648ZM45.112 99.968C46.048 100.28 46.912 100.664 47.692 101.096L47.284 101.72C46.456 101.216 45.604 100.832 44.716 100.544L45.112 99.968ZM50.896 94.724V105.2H50.056V104.708H41.944V105.2H41.104V94.724H50.896ZM41.944 103.94H50.056V95.492H41.944V103.94ZM55.72 98.216V98.936C55.708 99.38 55.684 99.8 55.66 100.196H61.24V105.224H60.376V101.036H55.552C55.264 102.836 54.604 104.228 53.584 105.188L52.924 104.612C54.184 103.424 54.82 101.528 54.844 98.936V94.532H55.72V97.388H59.236V94.196H60.088V97.388H62.788V98.216H55.72ZM68.08 99.44V100.256C67.696 100.424 67.3 100.58 66.916 100.724V104.084C66.916 104.78 66.592 105.128 65.944 105.128H64.9L64.72 104.276C65.032 104.312 65.344 104.336 65.644 104.336C65.932 104.336 66.076 104.18 66.076 103.868V101.012C65.644 101.144 65.212 101.264 64.78 101.384L64.576 100.556C65.08 100.448 65.584 100.328 66.076 100.184V97.244H64.72V96.416H66.076V94.196H66.916V96.416H68.104V97.244H66.916V99.908C67.312 99.764 67.696 99.608 68.08 99.44ZM69.52 98.612V103.964C70.096 103.808 70.612 103.616 71.092 103.388L71.248 104.192C70.444 104.528 69.52 104.816 68.488 105.056L68.272 104.252C68.536 104.168 68.668 103.988 68.668 103.724V94.316H69.52V97.772H71.212V98.612H69.52ZM73.84 105.032H72.832C72.136 105.032 71.788 104.648 71.788 103.904V94.232H72.64V97.856C73.36 97.616 74.068 97.28 74.74 96.848L75.244 97.556C74.332 98.06 73.468 98.456 72.64 98.72V103.724C72.64 104.048 72.796 104.216 73.108 104.216H73.696C73.972 104.216 74.164 104.12 74.284 103.952C74.44 103.736 74.536 103.088 74.584 102.008L75.376 102.26C75.292 103.58 75.124 104.372 74.872 104.66C74.656 104.9 74.32 105.032 73.84 105.032ZM77.836 99.224H86.188V102.284H82.42V102.956H86.488V103.532H82.42V104.24H87.364V104.912H76.636V104.24H81.556V103.532H77.536V102.956H81.556V102.284H77.836V99.224ZM85.36 101.744V101.012H82.42V101.744H85.36ZM81.556 101.744V101.012H78.664V101.744H81.556ZM78.664 100.508H81.556V99.764H78.664V100.508ZM82.42 99.764V100.508H85.36V99.764H82.42ZM78.1 94.388H85.936V97.352H78.1V94.388ZM85.096 96.836V96.128H78.94V96.836H85.096ZM78.94 95.612H85.096V94.916H78.94V95.612ZM76.624 97.976H87.376V98.624H76.624V97.976ZM90.892 94.184L91.744 94.328C91.636 94.928 91.516 95.492 91.372 96.044H94.06V96.812C93.736 98.912 93.124 100.676 92.212 102.092C92.5 102.536 92.8 102.872 93.136 103.112C94.072 103.772 95.56 104.108 97.588 104.132C98.212 104.132 98.836 104.108 99.484 104.072L99.316 104.972H97.996C95.524 104.972 93.736 104.552 92.632 103.736C92.296 103.484 91.996 103.16 91.72 102.776C90.976 103.712 90.112 104.48 89.104 105.08L88.636 104.264C89.668 103.664 90.532 102.884 91.216 101.936C90.82 101.18 90.472 100.256 90.172 99.164C89.86 99.728 89.512 100.232 89.152 100.676L88.564 99.944C89.716 98.516 90.484 96.596 90.892 94.184ZM90.676 98.12C90.988 99.356 91.324 100.376 91.708 101.18C92.416 99.968 92.92 98.528 93.208 96.872H91.132C90.988 97.316 90.832 97.736 90.676 98.12ZM95.668 94.256H96.544V97.304C97.528 98.012 98.524 98.828 99.544 99.752L99.028 100.52C98.056 99.536 97.228 98.756 96.544 98.204V103.196H95.668V94.256ZM104.992 94.676H110.86V100.22H108.364V101.636H111.064V102.452H108.364V104.012H111.508V104.84H104.284V104.012H107.5V102.452H104.788V101.636H107.5V100.22H104.992V94.676ZM110.032 99.452V97.832H108.364V99.452H110.032ZM107.5 99.452V97.832H105.82V99.452H107.5ZM105.82 97.076H107.5V95.444H105.82V97.076ZM108.364 95.444V97.076H110.032V95.444H108.364ZM100.756 98.648H102.064V95.804H100.588V94.988H104.416V95.804H102.952V98.648H104.272V99.476H102.952V102.2C103.408 102.044 103.84 101.876 104.272 101.684V102.524C103.168 102.98 101.98 103.364 100.708 103.676L100.492 102.848C101.02 102.752 101.548 102.632 102.064 102.488V99.476H100.756V98.648Z" fill="#0D0D0D" fill-opacity="0.9"/>
<path opacity="0.6" fill-rule="evenodd" clip-rule="evenodd" d="M262 94.6667H256V106H262C262.736 106 263.333 105.403 263.333 104.667V96.0001C263.333 95.2637 262.736 94.6667 262 94.6667ZM258.663 96.9418C258.634 96.6931 258.423 96.5001 258.167 96.5001C257.891 96.5001 257.667 96.7239 257.667 97.0001V98.0001H256.667V99.0001H257.667V100H256.667V101H257.667V102.5L257.67 102.558C257.699 102.807 257.91 103 258.167 103C258.443 103 258.667 102.776 258.667 102.5V101H259.667L259.741 100.997C260.259 100.959 260.667 100.527 260.667 100V99.0001L260.664 98.9254C260.626 98.408 260.194 98.0001 259.667 98.0001H258.667V97.0001L258.663 96.9418ZM259.667 100H258.667V99.0001H259.667V100Z" fill="url(#paint6_linear_1970_53321)"/>
<path fill-rule="evenodd" clip-rule="evenodd" d="M249.835 93.8539C249.167 93.9373 248.667 94.5045 248.667 95.177V105.156C248.667 105.829 249.167 106.396 249.835 106.479L255.168 107.146C255.964 107.245 256.667 106.625 256.667 105.823V94.5103C256.667 93.7083 255.964 93.0878 255.168 93.1873L249.835 93.8539ZM254.997 98.9114C254.948 97.992 254.119 96.9973 253 96.9973C252.137 96.9973 251.468 97.4432 251.053 98.2737C250.929 98.5207 251.029 98.821 251.276 98.9445C251.523 99.068 251.824 98.9679 251.947 98.7209C252.198 98.218 252.53 97.9973 253 97.9973C253.486 97.9973 253.898 98.4459 253.983 98.8501C253.938 98.9051 253.898 98.9504 253.863 98.9856L253.822 99.0262C253.821 99.0275 253.82 99.0283 253.823 99.0288L253.803 99.036C253.784 99.0416 253.763 99.0466 253.74 99.0511L253.661 99.0633L253.562 99.0731L253.438 99.0809L252.725 99.1039C252.297 99.1248 252.03 99.1733 251.776 99.3001C251.029 99.6736 250.679 100.724 251.053 101.471C251.396 102.158 252.075 102.497 253 102.497C253.357 102.497 253.699 102.383 254.028 102.163C254.096 102.357 254.282 102.497 254.5 102.497C254.776 102.497 255 102.273 255 101.997V98.9973L254.997 98.9114ZM254.061 100.003L253.999 100.019V100.019C253.89 100.046 253.772 100.062 253.618 100.073L253.446 100.082L253.242 100.089L252.898 100.098L252.715 100.106C252.464 100.122 252.313 100.15 252.223 100.195C251.97 100.321 251.82 100.771 251.947 101.024C252.103 101.337 252.425 101.497 253 101.497C253.289 101.497 253.625 101.289 253.999 100.826L253.999 100.019C254.02 100.014 254.041 100.009 254.061 100.003Z" fill="url(#paint7_linear_1970_53321)"/>
<path d="M277.688 94.232H278.312C279.824 95.816 281.564 97.052 283.532 97.964L283.1 98.732C281.108 97.772 279.416 96.536 278 95.012C276.692 96.464 274.976 97.724 272.852 98.792L272.432 98.036C274.544 97.016 276.296 95.744 277.688 94.232ZM274.652 98.024H281.348V98.852H278.444V100.94H281.912V101.768H278.444V103.988H283.004V104.84H273.008V103.988H277.556V101.768H274.076V100.94H277.556V98.852H274.652V98.024ZM284.768 96.224H289.736C289.412 95.588 289.016 94.988 288.536 94.424L289.4 94.112C289.856 94.688 290.264 95.396 290.648 96.224H295.232V97.088H293.36C292.772 98.984 291.884 100.58 290.708 101.852C291.98 102.932 293.576 103.82 295.496 104.528L295.028 105.248C293.036 104.504 291.404 103.58 290.108 102.464C288.74 103.724 287.036 104.648 284.996 105.236L284.54 104.48C286.556 103.94 288.212 103.088 289.508 101.912C288.116 100.544 287.156 98.936 286.616 97.088H284.768V96.224ZM287.468 97.088C287.984 98.708 288.86 100.112 290.108 101.312C291.176 100.148 291.956 98.744 292.46 97.088H287.468ZM300.512 98.528C301.136 98.816 301.7 99.164 302.204 99.572L301.844 100.148C301.292 99.68 300.74 99.32 300.176 99.056L300.512 98.528ZM299.084 100.916H298.004V102.068H299.084V100.916ZM299.084 102.704H298.004V103.964H299.084V102.704ZM299.792 103.964H300.836V102.704H299.792V103.964ZM300.836 104.648H298.004V105.152H297.248V100.244H301.58V105.14H300.836V104.648ZM299.792 102.068H300.836V100.916H299.792V102.068ZM299.072 95.48C298.472 95.528 297.824 95.564 297.14 95.564L296.9 94.856C298.676 94.856 300.14 94.664 301.316 94.28L301.7 94.94C301.148 95.132 300.524 95.288 299.816 95.396V97.388H300.368C300.584 96.884 300.788 96.344 300.956 95.768L301.604 95.996C301.436 96.524 301.244 96.98 301.028 97.388H301.868V98.132H299.816V99.86H299.072V98.132H298.976C298.52 99.068 297.824 99.848 296.864 100.472L296.456 99.788C297.296 99.344 297.932 98.792 298.364 98.132H296.828V97.388H297.824C297.68 96.98 297.5 96.608 297.296 96.26L297.932 96.008C298.124 96.392 298.292 96.86 298.46 97.388H299.072V95.48ZM302.54 105.02L302.324 104.228L303.332 104.252C303.548 104.252 303.656 104.108 303.656 103.82V101.06C303.236 101.648 302.768 102.188 302.24 102.668L301.892 101.888C302.564 101.336 303.152 100.688 303.656 99.932V95.48H302.096V94.76H304.412V104.06C304.412 104.696 304.112 105.02 303.512 105.02H302.54ZM305.228 105.02L305.024 104.228L306.044 104.252C306.284 104.252 306.404 104.084 306.404 103.772V100.76C306.02 101.372 305.6 101.924 305.132 102.428L304.796 101.648C305.396 101.072 305.936 100.376 306.404 99.584V95.516H304.904V94.76H307.172V104.012C307.172 104.684 306.86 105.02 306.236 105.02H305.228ZM305.3 96.464C305.564 97.304 305.792 98.192 305.984 99.14L305.432 99.392C305.216 98.36 304.976 97.448 304.712 96.656L305.3 96.464ZM302.6 96.62C302.888 97.448 303.128 98.336 303.332 99.296L302.78 99.536C302.552 98.504 302.3 97.604 302.024 96.812L302.6 96.62ZM312.848 94.7H318.596V95.42C318.248 96.284 317.612 97.028 316.7 97.652C317.492 98.012 318.452 98.264 319.568 98.408L319.268 99.164C317.9 98.984 316.784 98.636 315.896 98.132C314.96 98.612 313.82 99.008 312.476 99.308L312.068 98.588C313.268 98.324 314.3 98 315.14 97.616C314.42 97.04 313.904 96.32 313.58 95.468H312.848V94.7ZM314.408 95.468C314.72 96.164 315.224 96.752 315.908 97.208C316.724 96.704 317.312 96.128 317.684 95.468H314.408ZM313.196 100.196H315.464V99.092H316.328V100.196H318.752V100.976H316.328V102.356H319.34V103.172H316.328V105.236H315.464V103.172H312.68V102.356H315.464V100.976H313.196V100.196ZM309.944 94.316C310.76 94.94 311.444 95.564 311.996 96.188L311.408 96.788C310.904 96.188 310.208 95.564 309.344 94.904L309.944 94.316ZM308.528 97.868H311.072V103.064C311.444 102.704 311.828 102.296 312.236 101.84L312.464 102.752C311.792 103.496 311.072 104.168 310.304 104.756L309.98 103.988C310.148 103.82 310.244 103.64 310.244 103.436V98.696H308.528V97.868Z" fill="#0D0D0D" fill-opacity="0.9"/>
<defs>
<linearGradient id="paint0_linear_1970_53321" x1="216" y1="0" x2="216" y2="134" gradientUnits="userSpaceOnUse">
<stop stop-color="#FEF9E9" stop-opacity="0.7"/>
<stop offset="1" stop-color="#FEF9E9" stop-opacity="0.59"/>
</linearGradient>
<linearGradient id="paint1_linear_1970_53321" x1="16.6666" y1="57.3333" x2="27.9771" y2="59.143" gradientUnits="userSpaceOnUse">
<stop stop-color="#F7D5A1"/>
<stop offset="1" stop-color="#F0BE69"/>
</linearGradient>
<linearGradient id="paint2_linear_1970_53321" x1="16.6666" y1="60.6665" x2="32.8945" y2="64.2367" gradientUnits="userSpaceOnUse">
<stop stop-color="#F7D5A1"/>
<stop offset="1" stop-color="#F0BE69"/>
</linearGradient>
<linearGradient id="paint3_linear_1970_53321" x1="248.667" y1="58" x2="262.848" y2="60.6945" gradientUnits="userSpaceOnUse">
<stop stop-color="#F7D5A1"/>
<stop offset="1" stop-color="#F0BE69"/>
</linearGradient>
<linearGradient id="paint4_linear_1970_53321" x1="264" y1="70.6667" x2="251.977" y2="68.6147" gradientUnits="userSpaceOnUse">
<stop stop-color="#F7D5A1"/>
<stop offset="1" stop-color="#F0BE69"/>
</linearGradient>
<linearGradient id="paint5_linear_1970_53321" x1="16" y1="94" x2="33.5039" y2="97.4687" gradientUnits="userSpaceOnUse">
<stop stop-color="#F7D5A1"/>
<stop offset="1" stop-color="#F0BE69"/>
</linearGradient>
<linearGradient id="paint6_linear_1970_53321" x1="256" y1="94.6667" x2="264.416" y2="95.5381" gradientUnits="userSpaceOnUse">
<stop stop-color="#F7D5A1"/>
<stop offset="1" stop-color="#F0BE69"/>
</linearGradient>
<linearGradient id="paint7_linear_1970_53321" x1="248.667" y1="93.1768" x2="257.869" y2="94.0194" gradientUnits="userSpaceOnUse">
<stop stop-color="#F7D5A1"/>
<stop offset="1" stop-color="#F0BE69"/>
</linearGradient>
</defs>
</svg>
