<svg data-testid="sticky-icon" width="32" height="32"
    xmlns="http://www.w3.org/2000/svg">
    <g data-testid="non-animated-sticky-icon" style="display: block;">
        <g id="c" data-name="Group 375000">
            <g data-testid="sticky-icon-selected-path" style="display: none;">
                <path d="M9 5.5H23C24.933 5.5 26.5 7.067 26.5 9V18C26.5 19.933 24.933 21.5 23 21.5H19.8493L18.1437 24.3426C17.1727 25.9609 14.8273 25.9609 13.8563 24.3426L12.1507 21.5H9C7.067 21.5 5.5 19.933 5.5 18L5.5 9C5.5 7.067 7.067 5.5 9 5.5ZM13 20L15.1425 23.5708C15.5309 24.2182 16.4691 24.2182 16.8575 23.5708L19 20H23C24.1046 20 25 19.1046 25 18V9C25 7.89543 24.1045 7 23 7H9C7.89543 7 7 7.89543 7 9V18C7 19.1046 7.89543 20 9 20H13Z" fill="white"></path>
                <path d="M9 4H23C25.7614 4 28 6.23858 28 9V18C28 20.7614 25.7614 23 23 23H20.6986L19.43 25.1143C17.8764 27.7037 14.1237 27.7037 12.57 25.1143L11.3014 23H9C6.23857 23 4 20.7614 4 18L4 9C4 6.23858 6.23858 4 9 4ZM12.1507 21.5L13.8563 24.3426C14.8273 25.9609 17.1727 25.9609 18.1437 24.3426L19.8493 21.5H23C24.933 21.5 26.5 19.933 26.5 18V9C26.5 7.06701 24.933 5.5 23 5.5H9C7.067 5.5 5.5 7.067 5.5 9V18C5.5 19.933 7.067 21.5 9 21.5H12.1507Z" fill="#0a6cff">
                </path>
            </g>

            <path id="f" data-name="Path 1020482" d="M7 9C7 7.89543 7.89543 7 9 7H23C24.1046 7 25 7.89543 25 9V18C25 19.1046 24.1046 20 23 20H19L16.8575 23.5708C16.4691 24.2182 15.5309 24.2182 15.1425 23.5708L13 20H9C7.89543 20 7 19.1046 7 18L7 9Z" fill="var(--editorStickyNote-color)"></path>
            <path data-testid="sticky-icon-draft-path" id="f" data-name="Path 1020481" d="M11.7354 4.78125C11.7354 4.36704 12.0711 4.03125 12.4854 4.03125H14.4936C14.9078 4.03125 15.2436 4.36704 15.2436 4.78125C15.2436 5.19546 14.9078 5.53125 14.4936 5.53125H12.4854C12.0711 5.53125 11.7354 5.19546 11.7354 4.78125ZM8.00428 4.13156C7.53563 4.2116 7.14942 4.35998 6.8131 4.6127C6.48195 4.86152 6.26914 5.22862 6.44046 5.60574C6.61179 5.98287 7.02242 6.07999 7.39954 5.90867C7.67969 5.7814 7.95939 5.6599 8.27752 5.60584C8.59564 5.55178 8.9156 5.53674 9.3214 5.51767L9.3214 5.51767C9.7272 5.49859 10.0358 5.11793 10.0066 4.70335C9.97883 4.30963 9.54806 4.04959 9.1266 4.0435C8.70513 4.03741 8.47293 4.05152 8.00428 4.13156ZM4.3483 7.19861C4.50038 6.81333 4.936 6.62428 5.32129 6.77637C5.70657 6.92845 5.89562 7.36407 5.74353 7.74936C5.63056 8.03557 5.54542 8.37444 5.50541 8.68908C5.4654 9.00372 5.50541 9.68462 5.50541 9.68462C5.47975 10.098 5.12382 10.4124 4.7104 10.3867C4.29698 10.3611 4.03123 9.99301 4.00829 9.59172L4.00724 9.57346C3.98514 9.18699 3.97866 9.07365 4.00829 8.59617C4.03838 8.11126 4.17827 7.62936 4.3483 7.19861ZM27.6527 7.19861C27.5006 6.81333 27.065 6.62428 26.6797 6.77637C26.2944 6.92845 26.1054 7.36407 26.2574 7.74936C26.3704 8.03557 26.4556 8.37444 26.4956 8.68908C26.5356 9.00372 26.4956 9.68462 26.4956 9.68462C26.5212 10.098 26.8772 10.4124 27.2906 10.3867C27.704 10.3611 27.9698 9.99301 27.9927 9.59172L27.9937 9.57346V9.57343V9.57342C28.0158 9.18698 28.0223 9.07364 27.9927 8.59617C27.9626 8.11126 27.8227 7.62936 27.6527 7.19861ZM20.6411 21.6471C20.2822 21.4403 19.8236 21.5636 19.6168 21.9225L19.2534 22.5532L19.1716 22.6887L19.1715 22.6889L19.1714 22.689C19.0394 22.908 18.8822 23.1687 18.7067 23.4529C18.6903 23.4796 18.6735 23.5063 18.6567 23.5331C18.4555 23.8543 18.2495 24.1829 18.4928 24.479C18.7378 24.777 19.2118 24.8847 19.5491 24.6443C19.9 24.3942 20.2458 23.8161 20.4973 23.3957L20.5428 23.3197L20.5496 23.3083L20.9165 22.6714C21.1233 22.3125 21 21.854 20.6411 21.6471ZM11.4307 21.6891C11.7896 21.4823 12.2482 21.6056 12.455 21.9645L12.8184 22.5952L12.9002 22.7307L12.9003 22.7309L12.9004 22.731C13.0324 22.9499 13.1896 23.2107 13.3651 23.4949C13.3815 23.5216 13.3983 23.5483 13.4151 23.5751C13.6163 23.8963 13.8222 24.2249 13.579 24.521C13.334 24.819 12.86 24.9267 12.5226 24.6863C12.1717 24.4362 11.826 23.8581 11.5745 23.4376L11.529 23.3617L11.5222 23.3503L11.1553 22.7134C10.9485 22.3545 11.0718 21.8959 11.4307 21.6891ZM27.2539 11.7939C27.6681 11.7939 28.0039 12.1297 28.0039 12.5439V14.5429C28.0039 14.9571 27.6681 15.2929 27.2539 15.2929C26.8397 15.2929 26.5039 14.9571 26.5039 14.5429V12.5439C26.5039 12.1297 26.8397 11.7939 27.2539 11.7939ZM5.5 17.2959C5.5 16.8817 5.16421 16.5459 4.75 16.5459C4.33579 16.5459 4 16.8817 4 17.2959V18.2954C4 18.7812 4.13076 19.2527 4.27378 19.6931C4.40171 20.0871 4.82479 20.3027 5.21875 20.1748C5.61271 20.0469 5.82838 19.6238 5.70045 19.2298L5.69266 19.2059C5.59975 18.92 5.5 18.6131 5.5 18.2954L5.5 17.2959ZM6.10129 21.3182C6.29525 20.9522 6.74918 20.8127 7.11518 21.0067C7.14745 21.0238 7.18024 21.0413 7.21347 21.0591C7.46018 21.1912 7.73119 21.3363 7.99572 21.4055C8.03603 21.416 8.07368 21.4262 8.10964 21.4359C8.34145 21.4986 8.50287 21.5422 8.85119 21.5422C9.25353 21.5422 9.5977 21.8887 9.55405 22.226C9.5104 22.5632 9.29357 22.8861 8.85119 22.9212C8.4088 22.9563 8.09143 22.9198 7.67931 22.8313C7.13986 22.7154 6.72745 22.5804 6.42578 22.3076C6.11855 22.0298 5.90733 21.6842 6.10129 21.3182ZM24.8858 20.9647C25.2518 20.7707 25.7057 20.9102 25.8997 21.2762C26.0936 21.6422 25.8824 21.9878 25.5752 22.2656C25.2735 22.5384 24.8611 22.6734 24.3217 22.7893C23.9096 22.8778 23.5922 22.9143 23.1498 22.8792C22.7074 22.8441 22.4906 22.5212 22.4469 22.184C22.4033 21.8467 22.7474 21.5002 23.1498 21.5002C23.4981 21.5002 23.6595 21.4566 23.8913 21.3939C23.9273 21.3842 23.965 21.3741 24.0053 21.3635C24.2698 21.2943 24.5408 21.1492 24.7875 21.0171L24.8235 20.9978L24.8858 20.9647ZM27.2539 16.5459C26.8397 16.5459 26.5039 16.8817 26.5039 17.2959V18.2954C26.5039 18.6131 26.4042 18.92 26.3112 19.2059L26.3035 19.2298C26.1755 19.6238 26.3912 20.0469 26.7852 20.1748C27.1791 20.3027 27.6022 20.0871 27.7301 19.6931C27.8731 19.2527 28.0039 18.7812 28.0039 18.2954V17.2959C28.0039 16.8817 27.6681 16.5459 27.2539 16.5459ZM4.73682 11.7969C5.15103 11.7969 5.48682 12.1327 5.48682 12.5469L5.48682 14.5458C5.48682 14.96 5.15103 15.2958 4.73682 15.2958C4.3226 15.2958 3.98682 14.96 3.98682 14.5458V12.5469C3.98682 12.1327 4.3226 11.7969 4.73682 11.7969ZM17.5063 4.03125C17.0921 4.03125 16.7563 4.36704 16.7563 4.78125C16.7563 5.19546 17.0921 5.53125 17.5063 5.53125H19.5146C19.9288 5.53125 20.2646 5.19546 20.2646 4.78125C20.2646 4.36704 19.9288 4.03125 19.5146 4.03125H17.5063ZM23.8754 4.10893L23.8663 4.10739C23.4593 4.03807 23.335 4.04053 23.0334 4.0465C22.9877 4.0474 22.9379 4.04839 22.8824 4.04921C22.461 4.0555 22.0233 4.34294 21.9957 4.73667C21.9667 5.15126 22.2687 5.4996 22.6745 5.51849C23.0803 5.53737 23.4002 5.55226 23.7184 5.60617C24.0365 5.66008 24.3163 5.78144 24.5965 5.90858C24.9737 6.07972 25.4182 5.91268 25.5894 5.53548C25.7605 5.15827 25.5491 4.78918 25.2163 4.5426C24.8564 4.27599 24.3417 4.18834 23.8754 4.10893ZM17.6665 26.7395C18.0473 26.5764 18.2238 26.1356 18.0608 25.7548C17.8977 25.374 17.4569 25.1975 17.0761 25.3605C16.0644 25.7937 15.3842 25.5475 14.9621 25.3802C14.577 25.2276 14.1411 25.416 13.9885 25.8011C13.8359 26.1862 14.0243 26.6221 14.4094 26.7747C14.9864 27.0033 16.1235 27.4001 17.6665 26.7395Z"  fill="#0a6cff" style="display: none;"></path>
            <g id="g" data-name="Line 86288">
                <path transform="translate(0,-1.5)" d="M20,14H12c-.41406,0-.75-.33594-.75-.75s.33594-.75,.75-.75h8c.41406,0,.75,.33594,.75,.75s-.33594,.75-.75,.75Z" fill="#fff"></path>
            </g>
            <g id="h" data-name="Line 86289">
                <path transform="translate(0,-1.5)" d="M19,17.5h-6c-.41406,0-.75-.33594-.75-.75s.33594-.75,.75-.75h6c.41406,0,.75,.33594,.75,.75s-.33594,.75-.75,.75Z" fill="#fff"></path>
            </g>
        </g>
    </g>
    <g data-testid="animated-sticky-icon" id="Scene-1" overflow="visible" style="display: none;">
        <g id="Comment_component_2.ai-Assets_Path-1020537" transform="matrix(.683 0 0 .684 22 25)">
            <animateTransform attributeName="transform" additive="replace" type="translate" repeatCount="indefinite" dur="2s" keyTimes="0;.567;.65;.983;1" values="33.694,38.052;39,41;39,40;33.694,38.018;33.694,38.018"></animateTransform>
            <animateTransform attributeName="transform" additive="sum" type="scale" repeatCount="indefinite" dur="2s" keyTimes="0;.567;.65;.983;1" values=".683,.684;1,1;1,1;.683,.684;.683,.684"></animateTransform>
            <animateTransform attributeName="transform" additive="sum" type="translate" repeatCount="indefinite" dur="2s" keyTimes="0;.567;.65;.983;1" values="-17.2,-19.15;-17,-19;-17,-19;-17.2,-19.1;-17.2,-19.1"></animateTransform>
            <animate attributeName="opacity" repeatCount="indefinite" dur="2s" keyTimes="0;.567;.65;.983;1" values=".01;.5;.6;.01;.01"></animate>
            <path fill="var(--editorStickyNote-color)" stroke="none" d="M1.37549e-07 2C6.15829e-08 0.89543 0.895431 0 2 0H16C17.1046 0 18 0.895431 18 2V11C18 12.1046 17.1046 13 16 13H12L9.85749 16.5708C9.46909 17.2182 8.53091 17.2182 8.1425 16.5708L5.99998 13H2C0.895429 13 8.32487e-07 12.1046 7.5652e-07 11L1.37549e-07 2Z" transform="translate(-16,-14) scale(1.8)"></path>
        </g>
        <g id="Comment_component_1.ai" transform="translate(22 25)">
            <animateTransform attributeName="transform" additive="replace" type="translate" repeatCount="indefinite" dur="2s" keyTimes="0;.567;.65;.983;1" values="22,25;22,22;22,21;22,25;22,25"></animateTransform>
            <path fill="#fff" stroke="none" d="M1.37549e-07 2C6.15829e-08 0.89543 0.895431 0 2 0H16C17.1046 0 18 0.895431 18 2V11C18 12.1046 17.1046 13 16 13H12L9.85749 16.5708C9.46909 17.2182 8.53091 17.2182 8.1425 16.5708L5.99998 13H2C0.895429 13 8.32487e-07 12.1046 7.5652e-07 11L1.37549e-07 2Z" transform="translate(-10.8,-10) scale(1.2)"></path>
            <path fill="var(--editorStickyNote-color)" stroke="none" d="M1.37549e-07 2C6.15829e-08 0.89543 0.895431 0 2 0H16C17.1046 0 18 0.895431 18 2V11C18 12.1046 17.1046 13 16 13H12L9.85749 16.5708C9.46909 17.2182 8.53091 17.2182 8.1425 16.5708L5.99998 13H2C0.895429 13 8.32487e-07 12.1046 7.5652e-07 11L1.37549e-07 2Z" transform="translate(-9,-9) scale(1)"></path>
            <path d="M20,14H12c-.41406,0-.75-.33594-.75-.75s.33594-.75,.75-.75h8c.41406,0,.75,.33594,.75,.75s-.33594,.75-.75,.75Z" fill="#fff" transform="translate(-16,-17.5)"></path>
            <path d="M19,17.5h-6c-.41406,0-.75-.33594-.75-.75s.33594-.75,.75-.75h6c.41406,0,.75,.33594,.75,.75s-.33594,.75-.75,.75Z" fill="#fff" transform="translate(-16,-17.5)"></path>
        </g>
    </g>
</svg>