<svg
width="49"
height="48"
viewBox="0 0 49 48"
fill="none"
xmlns="http://www.w3.org/2000/svg"
>
<path
  d="M24.5 38.9999C22.8431 38.9999 21.5 40.343 21.5 41.9999C21.5 43.6567 22.8431 44.9999 24.5 44.9999V38.9999ZM24.5 8.99988C32.7843 8.99988 39.5 15.7156 39.5 23.9998H45.5C45.5 12.4019 36.0979 2.99988 24.5 2.99988V8.99988ZM24.5 44.9999C36.0981 44.9999 45.5 35.5977 45.5 23.9998H39.5C39.5 32.284 32.7843 38.9999 24.5 38.9999V44.9999Z"
  fill="url(#paint0_linear_1077_12748)"
/>
<path
  d="M24.5 6C14.5589 6 6.5 14.0589 6.5 24C6.5 33.9411 14.5589 42 24.5 42"
  stroke="url(#paint1_linear_1077_12748)"
  stroke-width="6"
  stroke-linejoin="round"
/>
<defs>
  <linearGradient
    id="paint0_linear_1077_12748"
    x1="24.5"
    y1="35.9999"
    x2="24.5"
    y2="8.99987"
    gradientUnits="userSpaceOnUse"
  >
    <stop stop-color="#0A6CFF" />
    <stop offset="1" stop-color="#0A6CFF" stop-opacity="0.5" />
  </linearGradient>
  <linearGradient
    id="paint1_linear_1077_12748"
    x1="23"
    y1="42"
    x2="24.5"
    y2="9"
    gradientUnits="userSpaceOnUse"
  >
    <stop stop-color="#0A6CFF" stop-opacity="0" />
    <stop offset="1" stop-color="#0A6CFF" stop-opacity="0.5" />
  </linearGradient>
</defs>
</svg>
